<svg width="281" height="581" viewBox="0 0 281 581" fill="none" xmlns="http://www.w3.org/2000/svg">
<path d="M191.942 51.8979C192.561 50.0843 192.705 48.1378 192.36 46.2503C192.016 44.3627 191.195 42.5991 189.977 41.1333C188.76 39.6675 187.189 38.5501 185.419 37.8912C183.649 37.2322 181.741 37.0545 179.883 37.3755C167.364 40.714 155.075 45.0206 142.623 48.6262L135.446 50.8296C120.601 55.47 105.69 59.977 90.8455 64.584L81.0143 67.622C57.6382 74.8109 34.251 81.9886 10.853 89.1552C9.04913 89.4686 7.32523 90.1471 5.78305 91.1505C4.24084 92.154 2.91165 93.462 1.8739 94.9975C0.934509 96.5808 0.40036 98.379 0.320435 100.227C0.240509 102.075 0.61734 103.915 1.41641 105.576C2.21548 107.237 3.41119 108.668 4.89389 109.736C6.37659 110.804 8.09882 111.476 9.90265 111.69C15.5719 111.69 20.7496 108.652 26.2878 107.984C61.6798 227.39 97.1264 346.94 132.628 466.636C133.372 469.527 134.84 472.173 136.888 474.314C166.971 507.699 197.021 541.206 227.039 574.835C229.524 577.557 232.726 579.49 236.262 580.405C239.797 581.32 243.517 581.177 246.975 579.993C250.433 578.81 253.483 576.635 255.759 573.731C258.036 570.827 259.442 567.316 259.809 563.618C266.538 518.705 273.344 473.813 280.225 428.944C281.045 424.571 279.078 420.431 277.997 416.325C246.843 311.052 215.657 205.779 184.438 100.506C180.833 87.6195 176.442 74.9333 173.361 61.9133C179.883 59.7433 189.222 59.5763 191.942 51.8979ZM152.421 68.5902C187.507 187.417 222.713 306.2 258.04 424.938C259.089 429.211 257.614 433.551 257.122 437.791C251.093 477.118 245.194 516.446 239.131 555.773C211.44 524.591 183.422 493.644 155.632 462.563C154.177 461.081 153.058 459.292 152.355 457.321C117.127 338.639 82.1613 219.823 46.7365 101.207C62.7285 96.0324 78.8515 91.1916 94.9418 86.3175C97.76 85.405 100.6 84.4479 103.462 83.4464L103.659 83.7135C115.62 79.7741 127.745 76.3354 139.706 72.4628C142.033 71.8953 144.425 71.3945 146.784 70.9271V70.393L152.421 68.5902Z" fill="#104D73" fill-opacity="0.1"/>
<path d="M149.996 236.382C135.708 234.913 121.453 232.709 107.395 230.239C99.3331 231.441 98.9071 240.788 100.349 247.232H104.511C108.218 255.181 112.353 262.916 116.898 270.401C120.765 268.564 124.697 266.795 128.499 264.859C124.075 257.915 119.618 250.937 115.391 243.926C115.063 241.189 116.275 239.887 118.963 239.92C123.256 247.632 127.122 255.645 131.743 263.29C135.02 262.155 138.92 258.95 141.574 263.29C139.597 265.396 137.161 266.997 134.463 267.963C139.018 275.475 143.377 283.087 147.997 290.565L154.551 287.56C156.747 291.333 154.125 294.037 150.488 294.805C154.158 300.981 158.058 307.024 161.859 313.133C163.825 315.103 162.842 317.64 161.466 319.576C154.518 313.467 151.799 303.885 146.686 296.207C143.049 298.043 137.838 298.31 135.413 301.782C139.608 308.96 144.032 315.971 148.521 322.948C147.506 324.617 145.539 326.286 143.704 324.55C139.215 317.874 135.61 310.362 131.612 303.251C128.728 303.952 125.844 306.99 122.895 305.187C121.355 300.847 126.172 300.347 128.925 298.844C124.468 291.066 120.208 283.153 115.227 275.709L109.984 279.281C120.339 312.398 129.941 345.783 140.099 378.967C140.099 373.025 140.099 366.148 144.523 361.708C146.176 359.725 148.433 358.364 150.935 357.844C153.436 357.323 156.037 357.673 158.32 358.837C163.727 361.474 166.512 367.216 169.003 372.424C169.167 360.739 170.74 349.055 171.1 337.437C172.509 324.45 172.116 311.33 173.689 298.377L177.523 296.407C178.539 298.043 180.636 299.746 179.915 301.849C176.016 330.259 174.771 358.97 173.001 387.581C172.477 394.959 173.001 402.504 170.969 409.681C159.794 410.616 150.586 402.404 144.753 393.657C148.325 406.543 152.028 419.43 156.354 432.082C158.516 428.744 161.695 425.406 165.955 427.008C171.985 430.914 164.055 438.993 158.877 438.058C164.251 448.942 172.837 457.421 180.702 466.402C183.949 462.717 186.474 458.434 188.141 453.783C191.975 441.23 195.711 428.644 199.578 416.125C202.33 407.545 208 398.765 217.241 396.695C226.482 394.625 234.675 400.3 240.737 406.543C237.46 394.091 233.331 381.905 230.054 369.453C226.777 374.36 223.5 379.468 219.731 384.075C217.634 385.511 215.537 383.274 213.866 382.206C216.946 373.292 226.482 367.116 226.154 357C224.418 349.289 215.045 345.349 208.065 348.087C198.234 351.592 189.91 362.008 192.041 372.992C193.45 380.603 195.58 388.549 192.991 396.194C189.686 405.037 184.414 412.979 177.589 419.396C175.164 421.8 170.609 418.194 172.444 415.29C177.622 408.613 183.946 402.17 186.47 393.724C189.419 382.84 181.456 371.89 185.912 361.173C190.762 347.085 207.082 335.734 221.698 341.61C217.765 328.924 214.423 316.037 210.13 303.485C205.05 307.124 200.004 310.462 195.219 314.402C192.532 316.471 189.976 319.443 186.306 319.242C186.306 318.174 185.912 315.904 185.781 314.936C192.696 309.027 200.856 304.92 207.672 298.878C193.679 280.683 167.332 284.889 150.783 270.634C145.363 265.44 141.654 258.665 140.165 251.238C139.772 244.594 145.408 240.121 149.996 236.382Z" fill="#FFAB00" fill-opacity="0.1"/>
<path d="M136.232 4.15779C136.232 0.251779 131.677 -1.05022 128.99 0.886087C126.303 2.8224 127.745 5.99394 127.81 8.53118C130.268 22.6529 132.955 36.7078 135.577 50.8296L142.786 48.6262C139.805 33.9365 137.617 19.0915 136.232 4.15779Z" fill="#FFAB00" fill-opacity="0.1"/>
<path d="M63.1541 21.4845C61.7543 20.9048 60.2292 20.7117 58.7327 20.9247C57.2362 21.1377 55.8214 21.7493 54.6312 22.6976C53.441 23.6459 52.5176 24.8975 51.9541 26.3258C51.3907 27.7541 51.2073 29.3086 51.4223 30.8322C52.2088 38.4106 63.3835 40.2801 67.0866 33.9704C70.1014 29.6638 67.4142 23.7547 63.1541 21.4845Z" fill="#FFAB00" fill-opacity="0.1"/>
<path d="M90.9766 64.584C87.6995 60.0103 85.5367 54.5686 81.3421 50.8295C80.0078 50.3455 78.5554 50.3148 77.2026 50.7421C75.8497 51.1694 74.6691 52.0317 73.8376 53.1998C72.3302 59.2758 78.0323 63.2152 81.0471 67.622L90.9766 64.584Z" fill="#FFAB00" fill-opacity="0.1"/>
<path d="M146.686 70.927C144.327 71.361 141.934 71.8618 139.608 72.4627C142.164 87.2855 144.982 102.042 147.505 116.864C137.674 118.534 127.843 119.869 117.815 121.037C117.006 121.193 116.256 121.581 115.655 122.156C115.054 122.73 114.627 123.468 114.424 124.282C114.221 125.096 114.25 125.952 114.509 126.749C114.767 127.546 115.243 128.252 115.882 128.783C120.382 128.847 124.869 128.286 129.22 127.113C137.673 125.461 146.205 124.258 154.78 123.508C155.52 121.367 155.712 119.069 155.338 116.831C152.192 101.507 149.046 86.284 146.686 70.927Z" fill="#FFAB00" fill-opacity="0.1"/>
<path d="M103.462 83.7134V83.4463C100.666 84.4478 97.8475 85.3937 95.0074 86.284C101.037 94.2629 105.625 103.277 111.393 111.356C112.25 112.194 113.363 112.708 114.547 112.813C115.731 112.918 116.914 112.608 117.901 111.933C118.888 111.259 119.619 110.262 119.973 109.106C120.327 107.951 120.283 106.707 119.847 105.58C114.866 98.0688 108.869 91.1248 103.462 83.7134Z" fill="#FFAB00" fill-opacity="0.1"/>
<path d="M104.773 120.837L101.496 119.001C91.9266 122.039 82.0299 126.579 76.3934 135.46C70.036 145.175 71.5106 157.928 75.3448 168.377C82.0299 185.57 93.6306 201.528 109.786 210.308C114.935 213.252 120.653 215.013 126.541 215.468C132.428 215.924 138.341 215.063 143.868 212.945C145.67 212.278 148.324 210.642 146.686 208.372C132.496 179.36 117.684 150.516 104.773 120.837ZM98.9722 126.846C110.933 148.58 121.453 171.114 132.3 193.616C134.849 198.614 137.125 203.752 139.116 209.006C132.263 210.553 125.118 210.055 118.536 207.571C102.675 200.894 91.009 186.805 83.9961 171.215C79.9326 162.067 76.8194 151.184 81.014 141.502C82.6636 137.792 85.1498 134.53 88.2704 131.984C91.391 129.437 95.0577 127.677 98.9722 126.846Z" fill="#FFAB00" fill-opacity="0.1"/>
<path d="M163.366 147.779C163.595 143.005 158.614 141.302 154.78 141.102C151.7 143.172 148.881 146.577 150.684 150.516C152.421 157.727 165.168 155.491 163.366 147.779Z" fill="#FFAB00" fill-opacity="0.1"/>
<path d="M162.449 170.247C161.508 169.582 160.347 169.321 159.219 169.521C158.091 169.721 157.085 170.366 156.419 171.315C155.789 173.778 155.789 176.364 156.419 178.827C159.09 193.525 160.755 208.395 161.4 223.328C161.337 224.166 161.511 225.005 161.901 225.746C162.291 226.487 162.88 227.099 163.6 227.509C164.32 227.92 165.141 228.112 165.964 228.064C166.788 228.015 167.581 227.727 168.249 227.234C170.314 226.133 169.56 223.328 169.462 221.425C166.928 206.397 165.32 191.222 164.644 175.989C164.481 173.919 164.579 171.215 162.449 170.247Z" fill="#FFAB00" fill-opacity="0.1"/>
<path d="M235.33 415.624C234.551 412.299 232.652 409.358 229.963 407.314C227.274 405.27 223.966 404.253 220.616 404.44C218.583 404.706 216.638 405.448 214.933 406.606C213.227 407.764 211.808 409.308 210.785 411.117C207.245 416.692 206.164 423.403 204.034 429.579C218.42 429.812 232.675 438.058 238.049 452.047C238.934 445.37 239.983 438.459 241.13 431.715C238.803 430.914 235.624 430.48 234.904 427.576C235.1 423.67 236.509 419.597 235.33 415.624Z" fill="#104D73" fill-opacity="0.1"/>
<path d="M219.273 442.165C213.787 439.451 207.852 437.81 201.773 437.324C200.192 441.85 198.868 446.464 197.808 451.145C198.558 458.192 201.838 464.707 207.016 469.44C209.022 471.078 211.388 472.196 213.911 472.696C216.434 473.196 219.039 473.064 221.501 472.311C224.225 470.898 226.466 468.678 227.929 465.943C229.391 463.208 230.006 460.086 229.693 456.988C229.302 453.829 228.144 450.821 226.324 448.233C224.505 445.645 222.081 443.559 219.273 442.165Z" fill="#104D73" fill-opacity="0.1"/>
<path d="M217.732 482.059C206.099 482.26 197.874 471.61 194.236 461.428C192.565 465.868 190.959 470.842 186.502 473.112C197.611 484.864 208.032 497.316 219.273 509.068C219.929 509.905 220.797 510.543 221.784 510.913C222.771 511.284 223.838 511.373 224.871 511.17C225.903 510.967 226.862 510.48 227.642 509.763C228.423 509.045 228.996 508.124 229.3 507.098C232.02 496.148 232.414 484.73 235.035 473.713C232.982 476.374 230.35 478.512 227.348 479.96C224.345 481.409 221.054 482.127 217.732 482.059Z" fill="#104D73" fill-opacity="0.1"/>
<path d="M187.354 242.525C181.062 240.555 174.246 240.688 168.02 239.186C170.805 243.493 178.834 247.031 176.638 253.074L173.951 253.975C170.215 250.637 167.889 245.696 163.53 242.892C161.569 241.275 159.134 240.371 156.612 240.322C154.089 240.274 151.623 241.084 149.603 242.625C147.961 244.041 146.8 245.95 146.288 248.079C145.776 250.208 145.938 252.447 146.752 254.476C148.026 258.574 150.147 262.345 152.974 265.535C155.801 268.726 159.266 271.262 163.137 272.971C177.228 279.214 193.253 280.55 206.165 289.664C202.035 276.51 198.496 263.323 194.4 250.37C194.003 248.548 193.144 246.864 191.907 245.487C190.671 244.11 189.101 243.089 187.354 242.525Z" fill="#FFAB00" fill-opacity="0.1"/>
<path d="M143.639 291.366C139.739 283.721 134.922 276.577 130.825 269.032C126.827 270.467 122.928 272.17 118.995 273.806C122.993 281.851 127.876 289.363 132.333 297.175C136.036 295.305 141.05 294.638 143.639 291.366Z" fill="#FFAB00" fill-opacity="0.1"/>
<path d="M112.965 272.07C110.016 266.06 106.411 260.352 103.134 254.576C104.379 260.986 106.411 267.162 108.377 273.405L112.965 272.07Z" fill="#FFAB00" fill-opacity="0.1"/>
<path d="M162.973 369.219C160.298 365.958 156.474 363.896 152.323 363.477C145.408 365.647 144.491 374.127 145.408 380.169C146.031 385.949 148.369 391.397 152.11 395.788C155.852 400.178 160.819 403.301 166.348 404.74C166.938 393.123 171.199 379.268 162.973 369.219Z" fill="#FFAB00" fill-opacity="0.1"/>
</svg>
