<svg width="307" height="202" viewBox="0 0 307 202" fill="none" xmlns="http://www.w3.org/2000/svg">
<path d="M30.7581 18.0523C30.543 17.4217 30.4929 16.7448 30.6127 16.0884C30.7324 15.432 31.0179 14.8187 31.4411 14.309C31.8642 13.7993 32.4104 13.4107 33.0257 13.1816C33.6411 12.9525 34.3044 12.8907 34.9503 13.0023C39.302 14.1632 43.574 15.6608 47.9029 16.9146L50.3977 17.6808C55.5582 19.2945 60.7415 20.8617 65.9021 22.4638L69.3196 23.5202C77.4458 26.0201 85.5758 28.5161 93.7097 31.0082C94.3367 31.1172 94.936 31.3531 95.4721 31.702C96.0082 32.051 96.4703 32.5058 96.831 33.0398C97.1576 33.5904 97.3433 34.2157 97.3711 34.8584C97.3988 35.5011 97.2678 36.1406 96.9901 36.7183C96.7123 37.296 96.2966 37.7934 95.7812 38.1649C95.2658 38.5363 94.6671 38.77 94.04 38.8444C92.0692 38.8444 90.2693 37.7879 88.3441 37.5558C76.0408 79.078 63.7186 120.651 51.3774 162.273C51.1185 163.279 50.6083 164.199 49.8965 164.943C39.4387 176.553 28.9923 188.204 18.5574 199.899C17.6937 200.845 16.5805 201.518 15.3514 201.836C14.1222 202.154 12.8291 202.104 11.627 201.692C10.4249 201.281 9.36468 200.525 8.57339 199.515C7.78211 198.505 7.29329 197.284 7.1655 195.998C4.82636 180.38 2.46065 164.769 0.0683517 149.167C-0.216445 147.646 0.467068 146.206 0.843 144.778C11.6729 108.171 22.5142 71.563 33.3668 34.9553C34.6199 30.4741 36.1465 26.0627 37.2173 21.5351C34.9503 20.7805 31.7036 20.7224 30.7581 18.0523ZM44.4967 23.8569C32.2998 65.1779 20.0611 106.483 7.78066 147.773C7.41612 149.259 7.92875 150.769 8.09963 152.243C10.1957 165.919 12.2463 179.594 14.3538 193.27C23.9799 182.427 33.72 171.665 43.3803 160.857C43.8864 160.342 44.2752 159.72 44.5195 159.034C56.7658 117.764 68.9209 76.4466 81.2355 35.1991C75.6763 33.3997 70.0715 31.7163 64.4781 30.0214C63.4984 29.7041 62.5111 29.3713 61.5162 29.023L61.4478 29.1159C57.2898 27.746 53.0748 26.5502 48.9168 25.2036C48.1079 25.0062 47.2763 24.8321 46.4561 24.6695V24.4838L44.4967 23.8569Z" fill="#104D73"/>
<path d="M125.972 45.4964C128.877 45.4964 131.793 45.4964 134.709 45.4964C134.709 48.0737 134.709 50.6509 134.709 53.2282H125.926C125.972 50.6393 125.949 48.0737 125.972 45.4964Z" fill="#104D73"/>
<path d="M142.399 53.1818C142.3 50.6056 142.384 48.0255 142.649 45.4616C145.543 45.5429 148.425 45.4616 151.318 45.4616C151.318 48.0505 151.318 50.6277 151.318 53.205C148.322 53.2166 145.349 53.263 142.399 53.1818Z" fill="#104D73"/>
<path d="M92.7187 47.1217C95.5552 47.1217 98.4146 47.1217 101.217 47.1217C100.944 57.57 101.126 68.0879 101.114 78.5711C107.483 78.6523 113.851 78.5711 120.219 78.5711C120.219 81.1367 120.219 83.6907 120.219 86.2563C111.037 86.2563 101.855 86.2563 92.6731 86.2563C93.0832 81.8332 92.7756 77.3869 92.8668 72.9406C92.7984 64.3846 93.1402 55.7242 92.7187 47.1217Z" fill="#104D73"/>
<path d="M159.703 61.1805C159.908 56.5368 159.578 51.8002 159.84 47.1217C165.991 47.3191 172.188 46.7734 178.317 47.5164C181.691 47.9087 184.9 49.2106 187.616 51.2879C190.331 53.3653 192.454 56.1429 193.765 59.3346C195.268 62.8174 195.063 66.7297 194.813 70.433C193.548 79.4185 185.118 86.2563 176.346 86.2911C170.753 86.2911 165.16 86.384 159.578 86.2099C159.669 77.8629 159.851 69.5275 159.703 61.1805ZM168.361 55.1205C168.361 56.2814 168.361 57.4423 168.361 58.6032C168.486 61.7029 168.361 64.8025 168.224 67.8906C168.532 71.3733 168.292 74.949 168.406 78.4782C170.685 78.4782 173.054 78.4782 175.378 78.4782C177.227 78.4605 179.041 77.9604 180.646 77.0255C182.251 76.0907 183.595 74.7523 184.549 73.1379C185.575 71.2572 186.127 69.1459 186.155 66.994C186.183 64.842 185.686 62.7166 184.708 60.809C183.814 59.1761 182.529 57.7998 180.974 56.8074C179.419 55.8151 177.643 55.2388 175.811 55.1321C173.362 55.0392 170.878 55.1321 168.361 55.1205Z" fill="#104D73"/>
<path d="M126.279 56.4904C128.968 56.4904 131.656 56.4904 134.356 56.4904C134.356 66.4046 134.356 76.3305 134.356 86.2447C131.645 86.2447 128.933 86.2447 126.222 86.2447C126.291 76.3073 126.245 66.393 126.279 56.4904Z" fill="#104D73"/>
<path d="M142.638 86.2912C142.638 76.2957 142.638 66.3117 142.638 56.3162C145.395 56.3162 148.14 56.3162 150.897 56.3162C151.034 65.4991 150.897 74.682 150.954 83.8532C150.954 84.6311 151.068 85.4205 151.159 86.1751C148.345 86.384 145.486 86.2447 142.638 86.2912Z" fill="#104D73"/>
<path d="M206.193 89.7507C208.996 89.7507 211.798 89.7507 214.6 89.7507C214.521 99.4328 214.6 109.115 214.6 118.774C214.6 119.533 214.711 120.289 214.931 121.014C221.196 120.852 227.462 121.014 233.75 120.921C233.548 123.466 233.495 126.021 233.591 128.572C224.477 128.746 215.364 128.305 206.25 128.792C206.296 115.813 206.261 102.788 206.193 89.7507Z" fill="#104D73"/>
<path d="M92.3653 89.9829C95.1428 90.0599 97.9224 89.9902 100.693 89.7739C100.693 97.2386 100.693 104.703 100.693 112.168C100.603 113.583 100.823 115 101.337 116.317C101.852 117.634 102.647 118.819 103.666 119.784C105.145 120.859 106.908 121.455 108.725 121.494C110.541 121.533 112.327 121.014 113.85 120.004C115.545 118.621 116.651 116.625 116.938 114.432C117.265 111.27 117.368 108.089 117.245 104.912C117.245 99.9203 117.245 94.94 117.177 89.948C119.964 89.948 122.751 89.948 125.538 89.948C125.538 97.8887 125.538 105.818 125.538 113.758C125.322 118.402 123.636 123.278 119.843 126.157C116.573 128.531 112.607 129.698 108.599 129.466C104.491 129.676 100.446 128.37 97.2069 125.786C94.2133 122.945 92.4407 119.015 92.2742 114.85C92.559 106.561 92.3311 98.2718 92.3653 89.9829Z" fill="#104D73"/>
<path d="M131.246 89.7855C137.181 90.1454 143.116 89.8668 149.063 89.9481C153.813 89.8668 158.575 90.1222 163.326 89.7855C163.018 92.3047 163.417 94.8355 163.326 97.3779L162.3 97.7843C158.803 97.7843 155.317 97.7843 151.82 97.5521C151.045 102.695 152.002 108 151.569 113.143C151.82 118.367 151.205 123.591 151.729 128.816C148.79 128.885 145.839 128.885 142.9 128.816C142.9 123.591 142.9 118.367 142.9 113.143C142.843 111.413 142.9 109.66 142.9 107.966C142.752 104.483 142.957 101 142.752 97.5173C138.901 97.703 135.051 97.6682 131.2 97.5173C131.269 94.9632 131.28 92.3744 131.246 89.7855Z" fill="#104D73"/>
<path d="M169.739 89.9248C173.157 89.9248 176.494 89.9248 179.866 89.9248C183.66 89.9248 187.51 89.6694 191.258 90.5749C193.494 91.2552 195.491 92.5731 197.015 94.3731C198.539 96.1731 199.526 98.3799 199.859 100.733C200.098 103.728 200.155 106.921 198.72 109.637C196.556 114.118 191.703 116.603 186.986 116.997C184.047 117.183 181.085 117.067 178.135 117.067C177.748 120.921 177.998 124.799 177.953 128.676C175.219 128.676 172.496 128.676 169.762 128.676C169.739 115.779 169.739 102.846 169.739 89.9248ZM178.123 97.5172C178.123 101.476 178.123 105.435 178.123 109.393C181.541 109.126 185.255 110.09 188.456 108.523C192.067 106.781 192.477 100.849 189.037 98.713C185.597 96.5769 181.735 97.8191 178.123 97.5172Z" fill="#104D73"/>
<path d="M116.847 133.448H118.555C118.555 135.77 118.555 138.091 118.487 140.413C119.626 139.252 121.027 137.917 122.827 138.091C126.028 137.824 128.66 140.936 128.523 144.07C128.63 145.621 128.144 147.154 127.167 148.348C126.191 149.542 124.799 150.305 123.283 150.478C121.38 150.722 119.774 149.48 118.487 148.226V150.13H116.79C116.858 144.534 116.881 138.985 116.847 133.448ZM120.948 140.135C119.927 140.666 119.146 141.577 118.767 142.68C118.387 143.782 118.438 144.99 118.908 146.055C119.207 146.85 119.747 147.525 120.451 147.983C121.154 148.441 121.983 148.656 122.816 148.598C125.379 148.807 127.042 145.858 126.609 143.513C126.45 140.866 123.317 138.683 120.948 140.135Z" fill="#104D73"/>
<path d="M199.358 133.877H201.466C201.466 134.597 201.386 135.328 201.352 136.048C199.882 136.338 199.107 135.282 199.358 133.877Z" fill="#104D73"/>
<path d="M235.664 133.424H237.589C237.589 138.943 237.589 144.461 237.589 149.979L235.653 150.06C235.653 149.538 235.653 148.493 235.653 147.971C234.183 149.84 231.677 151.059 229.376 150.049C225.001 148.505 224.329 141.702 227.997 139.02C229.184 138.189 230.636 137.846 232.06 138.061C233.485 138.277 234.777 139.034 235.675 140.181C235.63 137.987 235.675 135.7 235.664 133.424ZM229.615 140.251C226.437 142.062 227.143 147.959 230.845 148.563C231.47 148.669 232.111 148.63 232.719 148.449C233.327 148.267 233.887 147.948 234.357 147.515C234.827 147.082 235.195 146.546 235.433 145.947C235.671 145.349 235.774 144.703 235.732 144.058C235.812 141.063 232.224 138.486 229.626 140.251H229.615Z" fill="#104D73"/>
<path d="M90.3149 134.098H92.1262C92.1262 138.869 92.1262 143.652 92.1262 148.424C95.0653 148.424 98.0044 148.424 100.943 148.424C100.943 148.981 100.943 149.584 100.943 150.119C97.4006 150.119 93.8577 150.119 90.3035 150.119C90.3338 144.755 90.3376 139.415 90.3149 134.098Z" fill="#104D73"/>
<path d="M167.939 138.091C167.939 136.872 167.939 135.665 167.939 134.446C168.68 134.446 170.092 134.446 169.853 135.607C169.853 136.431 169.853 137.267 169.853 138.103H173.419L173.555 139.635C172.335 139.865 171.093 139.955 169.853 139.902C169.921 142.422 169.739 144.941 169.933 147.448C170.4 149.016 172.393 148.168 173.544 148.273C173.544 151.337 168.326 150.594 168.019 147.982C167.711 145.37 168.019 142.596 167.928 139.856H166.378C166.378 139.241 166.378 138.637 166.378 138.033L167.939 138.091Z" fill="#104D73"/>
<path d="M147.844 141.005C148.28 140.084 148.972 139.313 149.836 138.791C150.699 138.268 151.694 138.017 152.697 138.068C152.697 138.707 152.697 139.345 152.697 139.995C151.914 139.981 151.14 140.163 150.443 140.525C149.746 140.888 149.147 141.419 148.698 142.073C147.286 144.5 147.912 147.448 147.776 150.13L145.919 150.002C145.998 146.45 145.919 142.898 145.919 139.345C145.714 138.242 146.978 138.184 147.707 138.184C147.741 139.09 147.787 140.042 147.844 141.005Z" fill="#104D73"/>
<path d="M192.295 140.587C192.821 139.838 193.502 139.215 194.289 138.762C195.076 138.309 195.951 138.037 196.852 137.964C196.852 138.649 196.852 139.334 196.852 140.019C196.165 140.011 195.486 140.162 194.865 140.459C194.243 140.757 193.696 141.193 193.263 141.737C191.52 144.151 192.443 147.321 192.227 150.095H190.29C190.29 146.16 190.29 142.224 190.29 138.289H192.181C192.249 139.009 192.272 139.798 192.295 140.587Z" fill="#104D73"/>
<path d="M104.236 138.823C106.412 138.231 108.793 137.662 110.98 138.637C111.715 139.068 112.318 139.699 112.721 140.46C113.123 141.221 113.309 142.081 113.258 142.944C113.327 145.266 113.258 147.681 113.258 150.06H111.447C111.447 149.701 111.356 149.004 111.322 148.644C109.317 150.85 105.364 151.129 103.507 148.644C103.203 148.199 103.002 147.69 102.919 147.155C102.835 146.619 102.872 146.072 103.025 145.553C103.178 145.033 103.445 144.556 103.804 144.157C104.164 143.758 104.607 143.446 105.102 143.246C107.178 142.631 109.382 142.631 111.458 143.246C111.481 142.683 111.37 142.123 111.134 141.613C110.898 141.103 110.544 140.66 110.103 140.32C108.303 139.159 106.127 139.972 104.338 140.715C104.338 140.077 104.281 139.45 104.236 138.823ZM105.512 144.999C105.239 145.247 105.036 145.564 104.923 145.918C104.81 146.272 104.79 146.651 104.867 147.015C104.943 147.379 105.112 147.716 105.358 147.992C105.603 148.268 105.916 148.473 106.264 148.586C108.838 149.886 112.278 147.425 111.424 144.453C109.487 144.442 107.164 143.629 105.512 144.999Z" fill="#104D73"/>
<path d="M134.983 138.324C138.628 136.965 143.253 139.868 142.957 144.012C143.435 148.017 139.209 151.372 135.484 150.269C134.69 150.061 133.945 149.693 133.293 149.187C132.641 148.68 132.096 148.045 131.689 147.32C131.282 146.595 131.022 145.794 130.925 144.964C130.827 144.135 130.894 143.294 131.121 142.491C131.372 141.523 131.857 140.635 132.532 139.907C133.206 139.179 134.049 138.635 134.983 138.324ZM133.069 145.939C133.421 146.727 133.961 147.412 134.64 147.933C135.318 148.454 136.113 148.794 136.953 148.923C137.713 148.811 138.438 148.527 139.075 148.09C139.712 147.654 140.244 147.078 140.633 146.404C142.239 143.675 140.097 139.589 136.919 139.682C133.923 139.554 131.77 143.281 133.069 145.939Z" fill="#104D73"/>
<path d="M154.77 138.834C157.048 138.254 159.543 137.615 161.765 138.695C162.481 139.139 163.06 139.779 163.434 140.543C163.809 141.307 163.965 142.164 163.884 143.014C163.884 145.336 163.884 147.657 163.884 150.06H162.095C162.095 149.712 161.993 149.027 161.958 148.679C161.096 149.608 159.946 150.207 158.702 150.376C157.458 150.545 156.195 150.274 155.123 149.608C154.041 148.969 153.756 147.692 153.369 146.589C153.756 145.428 154.052 144.128 155.203 143.513C157.288 142.352 159.76 142.7 162.038 143.234C162.108 142.729 162.057 142.215 161.89 141.734C161.724 141.253 161.446 140.82 161.081 140.471C159.281 139.067 156.957 140.018 154.998 140.471C154.914 139.937 154.838 139.392 154.77 138.834ZM155.909 145.277C154.77 146.438 155.818 148.273 157.151 148.76C159.703 149.759 162.847 147.344 161.947 144.476C159.976 144.43 157.436 143.548 155.909 145.277Z" fill="#104D73"/>
<path d="M178.978 138.463C182.68 136.78 187.647 139.728 187.317 144.047C187.795 148.215 183.125 151.604 179.342 150.142C178.549 149.867 177.819 149.429 177.199 148.855C176.578 148.281 176.08 147.584 175.735 146.805C175.39 146.027 175.205 145.185 175.193 144.331C175.181 143.477 175.341 142.629 175.663 141.841C175.949 141.071 176.392 140.371 176.964 139.788C177.535 139.206 178.222 138.754 178.978 138.463ZM179.137 140.274C178.456 140.754 177.913 141.411 177.567 142.178C177.221 142.945 177.084 143.793 177.17 144.633C177.256 145.472 177.563 146.273 178.057 146.95C178.552 147.627 179.216 148.156 179.98 148.482C182.714 149.643 185.768 146.914 185.54 144.035C185.528 140.912 181.849 138.44 179.137 140.274Z" fill="#104D73"/>
<path d="M208.278 138.474C211.969 136.768 216.97 139.705 216.64 144.024C217.084 148.029 212.812 151.384 209.098 150.269C208.306 150.056 207.564 149.682 206.917 149.17C206.269 148.658 205.73 148.018 205.33 147.289C204.93 146.56 204.679 145.756 204.59 144.926C204.502 144.096 204.578 143.256 204.815 142.456C205.039 141.559 205.47 140.73 206.072 140.037C206.675 139.345 207.431 138.809 208.278 138.474ZM206.991 146.38C207.379 147.053 207.91 147.63 208.545 148.067C209.179 148.505 209.901 148.793 210.659 148.911C211.438 148.797 212.18 148.499 212.827 148.042C213.473 147.584 214.006 146.98 214.384 146.276C215.876 143.571 213.78 139.647 210.693 139.682C207.446 139.426 205.327 143.699 206.991 146.38Z" fill="#104D73"/>
<path d="M242.716 139.171C243.81 138.311 245.182 137.905 246.558 138.034C247.934 138.163 249.211 138.818 250.132 139.868C251.362 141.179 251.43 143.083 251.647 144.778C248.491 144.929 245.347 144.778 242.192 144.894C242.727 146.369 243.388 148.064 245.028 148.528C246.828 149.387 248.56 148.122 250.075 147.251C250.633 147.367 250.838 147.948 251.134 148.412C250.24 149.335 249.107 149.982 247.867 150.275C246.627 150.569 245.331 150.499 244.128 150.072C239.913 148.47 239.287 141.899 242.716 139.171ZM242.283 143.385C244.789 143.385 247.295 143.385 249.801 143.385C249.334 141.597 248.15 139.554 246.065 139.67C243.992 139.531 242.727 141.632 242.283 143.385Z" fill="#104D73"/>
<path d="M15.6753 144.534C15.9458 143.378 16.606 142.356 17.5408 141.645C18.4757 140.934 19.6257 140.58 20.7903 140.645C21.4969 140.738 22.173 140.996 22.7658 141.398C23.3586 141.801 23.8521 142.338 24.2078 142.967C25.4381 144.906 25.8141 147.239 26.5546 149.387C21.5535 149.468 16.598 152.336 14.7298 157.2C14.4222 154.878 14.0577 152.475 13.6589 150.13C14.4678 149.851 15.5728 149.701 15.8234 148.691C15.755 147.332 15.2652 145.916 15.6753 144.534Z" fill="#104D73"/>
<path d="M21.2572 153.764C23.1639 152.82 25.2273 152.249 27.3404 152.081C27.8902 153.654 28.3505 155.259 28.7189 156.887C28.458 159.337 27.3179 161.603 25.5177 163.249C24.8207 163.818 23.9982 164.207 23.121 164.381C22.2439 164.555 21.3384 164.509 20.4825 164.247C19.5354 163.756 18.7564 162.984 18.248 162.032C17.7397 161.081 17.5258 159.996 17.6346 158.918C17.7708 157.82 18.1733 156.774 18.8058 155.874C19.4383 154.974 20.2808 154.249 21.2572 153.764Z" fill="#104D73"/>
<path d="M214.167 154.402L216.252 155.273L213.666 157.769H212.037C212.823 156.724 213.541 155.563 214.167 154.402Z" fill="#104D73"/>
<path d="M90.5883 154.553H92.3313C92.3313 159.963 92.3882 165.373 92.3313 170.806H90.6339C90.5427 165.373 90.5769 159.963 90.5883 154.553Z" fill="#104D73"/>
<path d="M146.83 156.051H148.789C148.789 157.165 148.789 158.288 148.789 159.418H152.435C152.435 160.01 152.435 160.578 152.435 161.229C151.227 161.229 150.02 161.229 148.812 161.229C148.812 163.55 148.744 165.942 148.869 168.287C148.744 169.332 149.894 169.668 150.601 170.075L152.56 169.506C153.039 172.606 148.003 172.199 147.263 169.819C146.545 167.068 147.058 164.166 146.91 161.356C146.665 161.402 146.414 161.381 146.18 161.296C145.946 161.211 145.738 161.064 145.578 160.871C145.417 160.678 145.309 160.445 145.265 160.196C145.221 159.947 145.242 159.69 145.326 159.452H146.921C146.876 158.276 146.845 157.142 146.83 156.051Z" fill="#104D73"/>
<path d="M96.6488 159.383H98.3121C98.3121 159.847 98.3121 160.787 98.2323 161.263C99.2804 160.253 100.511 159.127 102.06 159.325C102.603 159.252 103.156 159.291 103.684 159.439C104.213 159.588 104.707 159.843 105.137 160.189C105.567 160.535 105.925 160.966 106.188 161.456C106.452 161.945 106.617 162.484 106.674 163.04C106.833 165.849 106.674 168.67 106.674 170.632H104.851C104.714 168.624 105.09 165.71 104.623 162.877C103.484 159.975 99.0411 160.555 98.426 163.516C98.0273 166.151 98.426 168.832 98.2323 172.083H96.6716C96.6147 167.439 96.6488 163.411 96.6488 159.383Z" fill="#104D73"/>
<path d="M108.679 158.93H110.661C111.971 162.169 113.156 165.466 114.625 168.647C115.761 165.32 117.069 162.057 118.544 158.872L120.321 158.965C118.749 163.051 116.972 167.091 115.24 171.062H113.703C112.028 167.01 110.228 163.028 108.679 158.93Z" fill="#104D73"/>
<path d="M123.192 160.962C125.368 158.419 130.027 158.733 131.656 161.739C132.342 163.069 132.683 164.556 132.647 166.058C129.56 166.058 126.461 166.058 123.374 166.058C123.465 167.185 123.985 168.232 124.825 168.972C125.664 169.712 126.755 170.087 127.863 170.017C129.526 170.121 130.95 167.358 132.419 169.343C131.417 170.55 130.017 171.343 128.482 171.574C126.947 171.804 125.382 171.457 124.081 170.597C123.369 170.047 122.778 169.352 122.344 168.557C121.91 167.762 121.643 166.884 121.56 165.978C121.476 165.072 121.578 164.159 121.859 163.295C122.14 162.432 122.594 161.637 123.192 160.962ZM123.351 164.758H130.756C130.528 162.912 129.355 160.915 127.339 160.811C125.197 160.625 123.591 162.738 123.351 164.758Z" fill="#104D73"/>
<path d="M136.486 159.998C138.594 158.616 141.248 159.476 143.321 160.497L142.524 162.006C141.214 161.461 139.87 160.648 138.4 160.845C137.523 161.078 137.067 161.913 136.509 162.552C138.024 164.804 141.248 164.224 142.98 166.186C143.284 166.834 143.528 167.51 143.709 168.206C143.242 169.367 142.706 170.725 141.43 171.178C140.243 171.539 138.989 171.607 137.771 171.377C136.553 171.147 135.406 170.625 134.424 169.854L135.358 168.426C136.965 169.343 138.992 170.655 140.827 169.587C141.818 169.192 142.216 167.602 141.191 167.033C139.357 165.872 136.634 166.035 135.393 164.038C135.061 163.344 134.989 162.551 135.191 161.807C135.392 161.064 135.853 160.42 136.486 159.998Z" fill="#104D73"/>
<path d="M155.465 159.383H157.356C157.356 163.423 157.356 167.509 157.356 171.514H155.476C155.446 167.443 155.442 163.399 155.465 159.383Z" fill="#104D73"/>
<path d="M161.195 162.088C162.972 158.605 168.156 158.373 170.525 161.356C170.525 160.822 170.593 159.766 170.616 159.22C171.22 159.394 171.835 159.557 172.45 159.708C172.268 163.098 172.45 166.487 172.336 169.877C172.304 170.981 171.933 172.046 171.275 172.923C170.617 173.8 169.705 174.444 168.668 174.765C167.409 175.081 166.101 175.142 164.818 174.943C163.536 174.744 162.305 174.289 161.195 173.604L161.617 171.967C163.633 172.849 165.866 174.057 168.099 173.128C170.104 172.466 170.753 170.098 170.548 168.171C169.078 169.784 166.891 171.015 164.681 170.284C163.866 170.064 163.11 169.658 162.47 169.097C161.83 168.537 161.324 167.836 160.988 167.047C160.653 166.258 160.497 165.402 160.533 164.543C160.569 163.684 160.795 162.845 161.195 162.088ZM164.43 161.379C163.869 161.693 163.393 162.144 163.046 162.693C162.699 163.242 162.493 163.87 162.445 164.521C162.398 165.172 162.511 165.824 162.774 166.419C163.037 167.014 163.442 167.532 163.952 167.927C164.531 168.367 165.213 168.646 165.93 168.737C166.647 168.828 167.374 168.727 168.042 168.445C168.709 168.163 169.293 167.709 169.736 167.128C170.18 166.547 170.467 165.858 170.571 165.129C170.878 162.018 166.971 159.824 164.442 161.368L164.43 161.379Z" fill="#104D73"/>
<path d="M176.073 160.404C178.408 159.243 181.393 158.721 183.717 160.195C185.209 161.101 185.471 163.016 185.54 164.642C185.54 166.546 185.54 168.449 185.54 170.353C185.733 171.398 184.56 171.514 183.831 171.596L183.603 169.866C182.715 170.847 181.51 171.469 180.209 171.618C178.907 171.768 177.597 171.434 176.517 170.678C176.075 170.336 175.718 169.891 175.477 169.381C175.235 168.871 175.116 168.31 175.128 167.744C175.14 167.177 175.284 166.622 175.547 166.123C175.81 165.625 176.186 165.196 176.643 164.874C178.773 163.434 181.484 163.922 183.831 164.409C183.922 162.297 182.213 161.089 180.413 160.776C179.207 161.059 178.017 161.408 176.848 161.821L176.073 160.404ZM177.007 167.033C177.007 167.474 177.132 168.357 177.178 168.809C177.542 169.226 177.989 169.559 178.489 169.787C178.988 170.015 179.53 170.133 180.077 170.133C180.625 170.133 181.166 170.015 181.666 169.787C182.165 169.559 182.612 169.226 182.976 168.809C183.569 167.983 183.87 166.976 183.831 165.953C181.564 165.327 178.579 164.769 176.996 167.022L177.007 167.033Z" fill="#104D73"/>
<path d="M189.493 161.577C190.073 160.859 190.8 160.28 191.623 159.88C192.447 159.48 193.346 159.268 194.259 159.261C195.171 159.253 196.074 159.449 196.903 159.835C197.733 160.221 198.47 160.788 199.062 161.496L197.638 162.575C196.499 161.588 195.018 160.486 193.411 160.985C192.763 161.165 192.162 161.491 191.653 161.94C191.145 162.388 190.742 162.947 190.474 163.576C190.206 164.204 190.08 164.886 190.105 165.571C190.131 166.256 190.307 166.926 190.62 167.532C190.972 168.276 191.524 168.902 192.212 169.337C192.9 169.773 193.695 170.001 194.505 169.993C195.793 169.698 196.991 169.084 197.991 168.206L199.05 169.367C198.161 170.425 196.959 171.163 195.626 171.47C194.292 171.777 192.896 171.638 191.646 171.073C190.836 170.649 190.128 170.049 189.569 169.317C189.01 168.585 188.614 167.737 188.409 166.834C188.204 165.93 188.195 164.991 188.382 164.083C188.569 163.176 188.948 162.32 189.493 161.577Z" fill="#104D73"/>
<path d="M201.933 159.255L203.767 159.684C203.653 163.237 203.767 166.801 203.767 170.353C203.983 171.445 202.696 171.514 201.99 171.584C201.898 167.474 201.91 163.365 201.933 159.255Z" fill="#104D73"/>
<path d="M210.818 159.603C211.971 159.195 213.214 159.134 214.4 159.426C215.585 159.718 216.663 160.352 217.505 161.252C218.565 162.498 219.105 164.116 219.011 165.761C218.918 167.407 218.198 168.95 217.004 170.063C216.36 170.657 215.598 171.104 214.77 171.374C213.942 171.643 213.067 171.729 212.204 171.626C211.341 171.522 210.51 171.232 209.766 170.774C209.022 170.317 208.382 169.702 207.891 168.972C205.692 165.837 207.116 160.776 210.818 159.603ZM210.909 161.437C207.868 163.098 208.153 168.264 211.32 169.564C213.928 170.934 217.175 168.403 217.118 165.605C217.505 162.529 213.678 159.603 210.909 161.437Z" fill="#104D73"/>
<path d="M222.062 171.596C221.994 167.486 222.062 163.376 222.062 159.255C223.201 159.127 224.227 159.661 224.124 160.985C226.152 158.117 231.369 158.907 232.098 162.517C232.288 165.52 232.326 168.531 232.212 171.537C231.369 171.537 230.093 171.537 230.31 170.377C230.162 167.869 230.538 165.327 230.139 162.831C229.091 160.137 224.933 160.509 224.101 163.179C223.909 165.833 223.886 168.497 224.033 171.154L222.062 171.596Z" fill="#104D73"/>
<path d="M243.638 160.648C244.205 160.146 244.866 159.767 245.581 159.535C246.297 159.303 247.051 159.222 247.798 159.299C248.545 159.375 249.269 159.606 249.925 159.978C250.581 160.349 251.155 160.854 251.613 161.461C252.415 162.83 252.811 164.406 252.752 166C249.653 166.093 246.555 166 243.468 166C243.554 166.771 243.829 167.507 244.267 168.142C244.704 168.777 245.291 169.289 245.974 169.634C247.774 170.539 249.767 169.564 251.134 168.298L252.422 169.308C251.46 170.448 250.142 171.217 248.691 171.485C247.239 171.754 245.741 171.506 244.447 170.783C241.109 168.786 240.802 163.318 243.638 160.648ZM243.57 164.758C246.042 164.758 248.514 164.758 250.975 164.758C250.901 163.899 250.587 163.079 250.07 162.396C249.553 161.713 248.855 161.195 248.058 160.903C245.723 160.288 243.786 162.529 243.57 164.758Z" fill="#104D73"/>
<path d="M21.7927 167.637C25.8369 167.706 28.6962 164.003 29.9607 160.462C30.5417 162.006 31.0999 163.736 32.6492 164.526C28.7874 168.612 25.1647 172.942 21.2573 177.029C21.0292 177.32 20.7273 177.542 20.3843 177.671C20.0413 177.799 19.6702 177.83 19.3113 177.76C18.9523 177.689 18.6191 177.52 18.3477 177.27C18.0763 177.021 17.877 176.7 17.7714 176.344C16.8259 172.536 16.6892 168.566 15.7778 164.735C16.4917 165.66 17.4064 166.403 18.4502 166.907C19.4939 167.411 20.6381 167.66 21.7927 167.637Z" fill="#104D73"/>
<path d="M188.467 175.833C189.174 175.601 189.846 176.286 190.507 176.471C189.367 177.632 188.228 179.339 186.428 178.944C187.028 177.855 187.71 176.815 188.467 175.833Z" fill="#104D73"/>
<path d="M90.5654 176.611H92.354C92.354 181.939 92.354 187.268 92.354 192.597H90.611C90.5199 187.268 90.611 181.939 90.5654 176.611Z" fill="#104D73"/>
<path d="M217.084 176.762C219.693 176.762 222.301 176.762 224.91 176.843C226.084 177.129 227.177 177.687 228.103 178.474C229.03 179.262 229.766 180.257 230.253 181.382C232.041 185.643 229.672 191.215 225.115 192.248C222.438 192.388 219.761 192.33 217.141 192.318C217.061 187.129 217.084 181.939 217.084 176.762ZM218.872 178.375C218.872 182.508 218.872 186.641 218.872 190.786C220.475 190.841 222.08 190.814 223.68 190.704C224.738 190.55 225.739 190.117 226.582 189.447C227.426 188.777 228.082 187.894 228.487 186.885C229.205 184.412 228.817 181.336 226.63 179.734C224.42 177.876 221.481 178.399 218.872 178.375Z" fill="#104D73"/>
<path d="M288.215 177.238H290.094C290.094 178.399 290.094 179.559 290.094 180.72H293.74L293.797 182.346C292.544 182.346 291.294 182.369 290.049 182.415C290.151 184.876 289.958 187.349 290.151 189.81C290.242 190.611 291.12 190.832 291.655 191.273C292.327 191.053 293.011 190.844 293.706 190.635C293.501 191.273 293.888 192.434 293.022 192.62C291.37 193.073 288.967 192.875 288.465 190.867C287.975 188.069 288.397 185.202 288.226 182.38H286.608V180.674L288.067 180.767C288.12 179.59 288.169 178.414 288.215 177.238Z" fill="#104D73"/>
<path d="M96.626 180.72H98.3689C98.3689 181.15 98.255 182.021 98.2208 182.45C98.7518 181.785 99.4278 181.254 100.195 180.902C100.962 180.549 101.8 180.384 102.641 180.419C103.723 180.46 104.749 180.922 105.508 181.71C106.266 182.498 106.7 183.552 106.719 184.656C106.799 187.291 106.719 189.915 106.719 192.539H104.896C104.737 189.729 105.159 186.873 104.657 184.11C103.723 181.231 99.1208 181.788 98.4942 184.598C98.0386 187.21 98.4942 189.915 98.2664 192.562H96.6488C96.6146 188.626 96.6602 184.679 96.626 180.72Z" fill="#104D73"/>
<path d="M110.285 180.72H112.085C112.085 181.08 112.085 181.8 112.085 182.16C113.338 181.301 114.671 180.221 116.288 180.43C117.312 180.42 118.303 180.794 119.072 181.482C119.841 182.169 120.335 183.122 120.458 184.157C120.572 186.978 120.458 189.787 120.458 192.608H118.59C118.498 189.857 118.726 187.094 118.476 184.342C117.747 181.475 113.235 181.661 112.392 184.342C111.732 187.036 112.267 189.857 112.051 192.608H110.342C110.262 188.626 110.308 184.679 110.285 180.72Z" fill="#104D73"/>
<path d="M127.475 180.744C128.248 180.482 129.065 180.381 129.877 180.447C130.689 180.513 131.479 180.745 132.202 181.128C132.924 181.511 133.564 182.039 134.083 182.678C134.601 183.318 134.989 184.058 135.222 184.853C135.639 186.318 135.523 187.887 134.895 189.271C134.267 190.656 133.169 191.762 131.804 192.388C128.387 193.966 123.739 191.749 123.408 187.744C123.129 186.272 123.389 184.747 124.138 183.457C124.887 182.167 126.075 181.202 127.475 180.744ZM127.601 182.508C126.951 182.852 126.392 183.349 125.972 183.959C125.551 184.569 125.28 185.274 125.183 186.013C125.086 186.752 125.165 187.504 125.413 188.205C125.661 188.907 126.072 189.537 126.609 190.043C127.116 190.524 127.735 190.867 128.408 191.038C129.08 191.209 129.784 191.204 130.454 191.021C131.124 190.839 131.737 190.486 132.236 189.996C132.735 189.506 133.104 188.895 133.308 188.22C134.789 184.818 131.007 180.813 127.589 182.508H127.601Z" fill="#104D73"/>
<path d="M136.566 180.778C137.261 180.778 137.944 180.778 138.651 180.778C139.851 183.758 141.035 186.746 142.205 189.741L142.683 189.834C143.914 186.804 145.064 183.739 146.352 180.744L148.368 180.837C146.522 184.795 144.95 188.882 143.15 192.84L141.499 192.597C139.983 188.568 138.252 184.679 136.566 180.778Z" fill="#104D73"/>
<path d="M150.373 181.545C152.845 180.546 155.909 179.85 158.245 181.545C159.669 182.613 159.76 184.54 159.805 186.188C159.918 188.333 159.823 190.483 159.521 192.608H158.028C158.028 192.248 157.96 191.552 157.937 191.203C156.023 192.98 152.834 193.525 150.715 191.842C150.314 191.509 149.992 191.089 149.77 190.613C149.549 190.137 149.434 189.617 149.434 189.091C149.434 188.564 149.549 188.044 149.77 187.568C149.992 187.092 150.314 186.672 150.715 186.339C152.879 184.702 155.682 185.236 158.142 185.654C158.129 185.073 157.983 184.503 157.716 183.989C157.449 183.476 157.068 183.032 156.604 182.694C154.839 181.858 152.799 182.404 151.079 183.1L150.373 181.545ZM151.934 187.547C150.464 188.835 151.934 191.296 153.62 191.296C154.197 191.419 154.794 191.399 155.362 191.24C155.93 191.08 156.452 190.785 156.887 190.379C157.321 189.973 157.654 189.467 157.858 188.904C158.063 188.341 158.133 187.736 158.062 187.14C156.069 186.711 153.585 186.014 151.877 187.535L151.934 187.547Z" fill="#104D73"/>
<path d="M163.576 183.054C165.729 179.687 170.799 179.687 173.339 182.601L171.972 183.878C170.997 183.022 169.872 182.36 168.657 181.928C167.961 182.026 167.291 182.263 166.685 182.626C166.079 182.988 165.549 183.469 165.125 184.041C163.291 186.618 165.023 190.89 168.201 191.157C169.819 191.412 171.106 190.228 172.348 189.369L173.259 190.82C172.538 191.555 171.664 192.114 170.701 192.456C169.739 192.797 168.713 192.913 167.7 192.794C163.303 192.457 160.922 186.56 163.576 183.054Z" fill="#104D73"/>
<path d="M176.141 180.686L178.044 180.767C178.044 184.702 178.044 188.626 178.044 192.562H176.176C176.119 188.626 176.119 184.656 176.141 180.686Z" fill="#104D73"/>
<path d="M185.574 180.662C186.422 180.423 187.311 180.373 188.179 180.518C189.048 180.662 189.875 180.997 190.605 181.499C191.334 182.001 191.948 182.658 192.403 183.425C192.859 184.192 193.146 185.051 193.245 185.942C193.343 186.834 193.251 187.736 192.974 188.587C192.697 189.439 192.242 190.218 191.64 190.873C191.039 191.528 190.305 192.042 189.49 192.379C188.675 192.717 187.797 192.87 186.918 192.829C185.483 192.744 184.123 192.145 183.078 191.138C182.034 190.13 181.373 188.779 181.213 187.323C181.052 185.867 181.401 184.4 182.199 183.181C182.997 181.962 184.193 181.07 185.574 180.662ZM183.968 183.704C183.534 184.285 183.237 184.96 183.101 185.676C182.966 186.393 182.994 187.132 183.185 187.835C183.376 188.539 183.724 189.188 184.201 189.732C184.679 190.276 185.273 190.7 185.938 190.971C188.752 192.039 191.862 189.16 191.349 186.212C191.349 183.89 189.299 182.52 187.362 181.939C186.155 182.334 184.742 182.578 183.968 183.704Z" fill="#104D73"/>
<path d="M196.237 180.651C196.859 180.695 197.479 180.773 198.093 180.883L198.276 182.346C200.201 179.374 205.407 180.024 206.25 183.507C206.58 186.502 206.318 189.543 206.364 192.55H204.735C204.541 189.659 205.065 186.746 204.257 183.866C203.117 181.37 199.039 181.73 198.287 184.331C197.888 186.653 198.287 189.067 198.116 191.436C198.31 192.597 196.977 192.597 196.225 192.597C196.202 188.673 196.248 184.656 196.237 180.651Z" fill="#104D73"/>
<path d="M238.091 180.604C239.593 180.233 241.178 180.455 242.526 181.226C243.875 181.997 244.887 183.26 245.359 184.76C245.798 186.152 245.745 187.657 245.208 189.013C244.671 190.368 243.684 191.489 242.42 192.18C241.155 192.87 239.693 193.087 238.288 192.792C236.883 192.497 235.624 191.709 234.73 190.565C232.041 187.245 233.796 181.429 238.091 180.604ZM235.732 184.714C234.263 187.558 236.735 191.679 239.97 191.157C242.978 190.948 244.675 187.047 243.206 184.493C242.511 182.984 240.927 182.38 239.48 181.928C238.678 182.053 237.917 182.371 237.259 182.856C236.602 183.34 236.067 183.977 235.698 184.714H235.732Z" fill="#104D73"/>
<path d="M249.619 182.172C250.24 181.592 250.967 181.144 251.759 180.852C252.551 180.561 253.391 180.432 254.232 180.473C255.073 180.514 255.897 180.724 256.658 181.091C257.419 181.459 258.1 181.976 258.664 182.613C258.22 183.042 257.776 183.472 257.343 183.913C255.919 182.415 253.583 181.521 251.715 182.752C251.067 183.216 250.546 183.842 250.201 184.569C249.857 185.296 249.701 186.101 249.747 186.907C249.794 187.713 250.043 188.494 250.469 189.175C250.895 189.856 251.485 190.414 252.182 190.797C254.085 191.877 256.101 190.611 257.616 189.439L258.653 190.6C258.131 191.266 257.481 191.817 256.742 192.217C256.003 192.617 255.192 192.858 254.358 192.926C253.524 192.994 252.686 192.887 251.894 192.611C251.102 192.336 250.375 191.898 249.756 191.324C249.137 190.751 248.64 190.054 248.295 189.277C247.951 188.5 247.767 187.66 247.754 186.807C247.741 185.955 247.9 185.109 248.221 184.321C248.542 183.534 249.018 182.822 249.619 182.23V182.172Z" fill="#104D73"/>
<path d="M262.891 181.336C263.491 180.935 264.163 180.66 264.869 180.528C265.575 180.396 266.3 180.41 267.001 180.568C267.701 180.726 268.364 181.025 268.949 181.448C269.535 181.871 270.031 182.409 270.409 183.031C271.097 184.384 271.379 185.915 271.218 187.43C268.142 187.43 265.055 187.43 261.968 187.43C262.503 188.824 263.107 190.391 264.656 190.913C266.502 191.784 268.45 190.658 269.862 189.474L271.002 190.751C270.018 191.739 268.769 192.407 267.412 192.672C266.056 192.936 264.653 192.785 263.38 192.237C259.427 190.275 259.165 183.704 262.891 181.336ZM262.002 185.979C264.52 185.979 267.049 185.979 269.578 185.979C269.145 183.913 267.55 181.626 265.214 182.113C263.346 182.427 262.423 184.273 262.013 185.979H262.002Z" fill="#104D73"/>
<path d="M275.98 182.462C277.916 179.49 283.02 179.826 284.148 183.344C284.372 186.434 284.417 189.536 284.284 192.631H282.61C282.428 189.857 282.883 187.013 282.325 184.273C281.824 182.299 279.397 181.893 277.768 182.601C277.229 182.917 276.783 183.374 276.476 183.926C276.17 184.477 276.014 185.102 276.025 185.736C275.934 188.057 276.025 190.31 276.025 192.597H274.271C274.271 188.626 274.271 184.644 274.271 180.686L276.06 180.778L275.98 182.462Z" fill="#104D73"/>
<path d="M298.718 181.208C299.327 180.837 300.002 180.593 300.705 180.49C301.407 180.387 302.123 180.428 302.809 180.609C303.496 180.791 304.141 181.11 304.706 181.547C305.271 181.985 305.745 182.532 306.1 183.158C306.721 184.492 307.029 185.955 307 187.43C303.879 187.43 300.757 187.43 297.636 187.43C298.126 189.137 299.254 190.913 301.145 191.192C302.819 191.505 304.266 190.449 305.553 189.508L306.567 190.774C305.583 191.793 304.31 192.474 302.928 192.722C301.545 192.97 300.122 192.772 298.855 192.155C294.947 190.043 294.868 183.425 298.718 181.208ZM297.647 185.979C300.154 185.979 302.671 185.979 305.177 185.979C304.779 184.319 303.958 182.497 302.124 182.125C299.789 181.51 298.023 183.89 297.647 185.979Z" fill="#104D73"/>
<path d="M93.1971 65.5804C93.1227 63.2953 93.1874 61.0078 93.3908 58.7309C93.8123 67.3449 93.4706 75.9938 93.5731 84.631C93.4819 89.0658 93.7895 93.5121 93.3794 97.9468C93.1721 95.5693 93.1112 93.1808 93.1971 90.7955C93.1971 82.3905 93.1971 73.9854 93.1971 65.5804Z" fill="#104D73"/>
<path d="M101.217 58.7309C101.46 60.141 101.571 61.5716 101.547 63.0031C101.468 71.9538 101.547 80.9045 101.49 89.8436C107.858 89.8436 114.238 89.7507 120.606 89.9364C120.709 92.5717 120.674 95.207 120.674 97.8423H120.264C120.264 95.2767 120.264 92.7226 120.264 90.157C113.896 90.157 107.528 90.157 101.16 90.157C101.126 79.6855 100.932 69.2024 101.217 58.7309Z" fill="#104D73"/>
<path d="M125.926 67.7397C128.865 67.6468 131.793 67.7397 134.732 67.7397C134.823 77.8861 134.891 88.0325 134.732 98.179C131.838 98.179 128.956 98.179 126.074 98.179C125.766 95.0213 125.994 91.8404 125.937 88.6827C125.914 81.7404 125.846 74.74 125.926 67.7397ZM126.279 68.0996C126.279 78.0022 126.279 87.9165 126.279 97.8191C128.99 97.8191 131.701 97.8191 134.413 97.8191C134.344 87.9048 134.413 77.979 134.413 68.0647C131.656 68.088 128.967 68.0647 126.279 68.0996Z" fill="#104D73"/>
<path d="M50.1243 1.45115C50.1243 0.0928789 51.7078 -0.35988 52.6419 0.313454C53.5761 0.986787 53.0748 2.08966 53.052 2.97196C52.1976 7.88265 51.2635 12.7701 50.3522 17.6808L47.8459 16.9146C48.8822 11.8064 49.6428 6.6442 50.1243 1.45115Z" fill="#FFAB00"/>
<path d="M75.5283 7.47632C76.0149 7.27474 76.545 7.20759 77.0653 7.28166C77.5855 7.35572 78.0773 7.56838 78.491 7.89816C78.9048 8.22793 79.2258 8.66314 79.4217 9.15982C79.6175 9.6565 79.6813 10.1971 79.6066 10.7269C79.3332 13.3622 75.4485 14.0123 74.1612 11.8182C73.1132 10.3206 74.0473 8.26575 75.5283 7.47632Z" fill="#FFAB00"/>
<path d="M65.8564 22.4638C66.9956 20.8733 67.7475 18.981 69.2057 17.6808C69.6695 17.5125 70.1744 17.5018 70.6447 17.6504C71.115 17.799 71.5254 18.0988 71.8144 18.5051C72.3384 20.6179 70.3562 21.9878 69.3082 23.5202L65.8564 22.4638Z" fill="#FFAB00"/>
<path d="M46.4902 24.6695C47.3104 24.8205 48.142 24.9946 48.9509 25.2036C48.0623 30.358 47.0826 35.4893 46.2054 40.6438C49.623 41.2243 53.0405 41.6886 56.5265 42.0949C56.808 42.149 57.0686 42.2839 57.2774 42.4838C57.4863 42.6837 57.6348 42.9402 57.7054 43.2232C57.776 43.5062 57.7658 43.8038 57.676 44.0811C57.5862 44.3583 57.4206 44.6037 57.1986 44.7883C55.6344 44.8107 54.0745 44.6154 52.5621 44.2078C49.6235 43.6334 46.6576 43.2149 43.6764 42.954C43.4193 42.2094 43.3526 41.4103 43.4827 40.6322C44.5764 35.3036 45.67 30.0098 46.4902 24.6695Z" fill="#FFAB00"/>
<path d="M61.5162 29.1159V29.023C62.4883 29.3713 63.468 29.7002 64.4553 30.0098C62.3592 32.7844 60.7643 35.9189 58.7593 38.7283C58.4612 39.0196 58.0743 39.1984 57.6628 39.2349C57.2513 39.2714 56.8399 39.1635 56.4969 38.9291C56.1538 38.6947 55.8997 38.3478 55.7766 37.946C55.6535 37.5442 55.6689 37.1116 55.8202 36.7199C57.5518 34.1078 59.6365 31.6931 61.5162 29.1159Z" fill="#FFAB00"/>
<path d="M61.0605 42.0253L62.1997 41.3868C65.5261 42.4432 68.9665 44.0221 70.9259 47.1101C73.1359 50.4884 72.6233 54.9231 71.2904 58.5568C68.9665 64.5355 64.9338 70.0847 59.3176 73.1379C57.5277 74.1615 55.5399 74.774 53.4934 74.9324C51.4468 75.0908 49.391 74.7914 47.47 74.0551C46.8434 73.8229 45.9207 73.254 46.4903 72.4646C51.423 62.3762 56.5721 52.3459 61.0605 42.0253ZM63.0769 44.1149C58.9188 51.6725 55.2621 59.5087 51.4913 67.3333C50.6051 69.0713 49.814 70.858 49.1218 72.6852C51.504 73.2231 53.9879 73.0498 56.2759 72.186C61.7896 69.8641 65.8451 64.9651 68.283 59.5436C69.6956 56.3626 70.7778 52.578 69.3196 49.2114C68.7462 47.9211 67.8819 46.787 66.7971 45.9013C65.7123 45.0157 64.4377 44.4037 63.0769 44.1149Z" fill="#FFAB00"/>
<path d="M40.6919 51.3939C40.6121 49.7338 42.3437 49.1417 43.6765 49.0721C44.7474 49.7919 45.7271 50.976 45.1005 52.3459C44.4967 54.8535 40.0653 54.0756 40.6919 51.3939Z" fill="#FFAB00"/>
<path d="M41.0107 59.2069C41.3379 58.9758 41.7413 58.8851 42.1335 58.9547C42.5258 59.0242 42.8754 59.2483 43.1068 59.5784C43.3259 60.4348 43.3259 61.3341 43.1068 62.1905C42.1783 67.3017 41.5997 72.4725 41.3753 77.6655C41.3971 77.957 41.3368 78.2487 41.2012 78.5063C41.0657 78.764 40.8607 78.9767 40.6105 79.1195C40.3602 79.2623 40.075 79.3291 39.7887 79.3122C39.5024 79.2952 39.2267 79.1952 38.9944 79.0238C38.2767 78.6407 38.5387 77.6655 38.5729 77.0038C39.4535 71.7778 40.0128 66.5008 40.2475 61.2037C40.3044 60.4839 40.2703 59.5436 41.0107 59.2069Z" fill="#FFAB00"/>
<path d="M45.3398 82.2047C50.3067 81.6939 55.2621 80.9277 60.1492 80.0686C62.9516 80.4866 63.0997 83.7372 62.5985 85.9777H61.1517C59.8632 88.7422 58.4256 91.4319 56.8456 94.0345C55.5014 93.396 54.1343 92.7807 52.8129 92.1074C54.3508 89.6927 55.9001 87.2663 57.3696 84.8284C57.4835 83.8765 57.062 83.4237 56.1279 83.4353C54.6356 86.117 53.2913 88.9032 51.6851 91.5618C50.5459 91.167 49.1902 90.0526 48.2675 91.5618C48.9547 92.2941 49.8016 92.8509 50.7395 93.187C49.1561 95.7991 47.641 98.446 46.0347 101.046L43.7563 100.002C42.9931 101.313 43.9044 102.254 45.1689 102.521C43.893 104.669 42.5374 106.77 41.2159 108.894C40.5324 109.579 40.8742 110.462 41.3526 111.135C43.7677 109.01 44.7132 105.679 46.4904 103.008C47.7549 103.647 49.5662 103.74 50.4092 104.947C48.951 107.443 47.4131 109.881 45.8524 112.307C46.2056 112.888 46.8891 113.468 47.527 112.865C49.0877 110.543 50.3408 107.931 51.7306 105.458C52.7331 105.702 53.7356 106.758 54.7609 106.131C55.2963 104.622 53.6217 104.448 52.6648 103.926C54.2141 101.221 55.695 98.4692 57.4266 95.8804L59.2493 97.1226C55.6494 108.639 52.3116 120.248 48.7801 131.788C48.7801 129.721 48.7801 127.33 47.2422 125.786C46.6679 125.096 45.8831 124.623 45.0135 124.442C44.144 124.261 43.24 124.383 42.4462 124.787C40.5666 125.704 39.5983 127.701 38.7325 129.512C38.6755 125.449 38.1287 121.386 38.0034 117.346C37.5136 112.83 37.6503 108.267 37.1035 103.763L35.7706 103.078C35.4175 103.647 34.6884 104.239 34.939 104.97C36.2946 114.85 36.7275 124.834 37.3427 134.783C37.525 137.348 37.3427 139.972 38.049 142.468C41.9336 142.793 45.1347 139.937 47.1625 136.896C45.9208 141.377 44.6335 145.858 43.1298 150.258C42.3779 149.097 41.2729 147.936 39.7919 148.493C37.6958 149.852 40.4527 152.661 42.2526 152.336C40.3843 156.12 37.3996 159.069 34.6656 162.192C33.5369 160.911 32.6591 159.421 32.0796 157.804C30.7468 153.439 29.4481 149.062 28.1039 144.709C27.1469 141.725 25.1762 138.672 21.9636 137.952C18.7511 137.232 15.9032 139.206 13.7957 141.377C14.9348 137.047 16.3702 132.809 17.5094 128.479C18.6486 130.186 19.7878 131.962 21.0979 133.564C21.8269 134.063 22.556 133.285 23.137 132.914C22.0662 129.814 18.7511 127.666 18.865 124.149C19.4688 121.467 22.7269 120.097 25.1534 121.049C28.5709 122.268 31.4645 125.89 30.724 129.71C30.2341 132.356 29.4937 135.119 30.3936 137.778C31.5426 140.853 33.3753 143.615 35.7478 145.846C36.5908 146.682 38.1743 145.428 37.5363 144.418C35.7364 142.097 33.5378 139.856 32.6606 136.919C31.6354 133.134 34.4036 129.326 32.8543 125.6C31.1683 120.701 25.4951 116.754 20.4143 118.797C21.7814 114.385 22.9433 109.904 24.4357 105.539C26.2014 106.805 27.9558 107.966 29.619 109.335C30.5531 110.055 31.4417 111.088 32.7176 111.019C32.7176 110.647 32.8543 109.858 32.8999 109.521C30.4962 107.466 27.6596 106.038 25.2901 103.937C30.1544 97.6101 39.3135 99.0729 45.0664 94.1158C46.9503 92.3096 48.2396 89.9535 48.7574 87.3708C48.8941 85.0606 46.9347 83.505 45.3398 82.2047Z" fill="#FFAB00"/>
<path d="M32.3529 84.3408C34.5402 83.6559 36.9097 83.7023 39.0741 83.1799C38.1058 84.6775 35.3148 85.9081 36.0781 88.0093L37.0122 88.3228C38.3109 87.1619 39.1197 85.4437 40.6348 84.4685C41.3166 83.9063 42.163 83.5919 43.0399 83.5751C43.9169 83.5583 44.7742 83.84 45.4764 84.3756C46.0473 84.868 46.4507 85.5319 46.6287 86.2722C46.8067 87.0126 46.7503 87.7913 46.4675 88.4969C46.0247 89.9217 45.2871 91.2331 44.3044 92.3426C43.3218 93.4521 42.1171 94.3339 40.7715 94.9284C35.873 97.0993 30.3024 97.5637 25.814 100.733C27.2493 96.159 28.4797 91.5734 29.9037 87.069C30.0415 86.4354 30.3404 85.8499 30.7703 85.3711C31.2001 84.8923 31.7459 84.537 32.3529 84.3408Z" fill="#FFAB00"/>
<path d="M47.5498 101.325C48.9054 98.6665 50.58 96.1822 52.004 93.5585C53.3938 94.0577 54.7495 94.6498 56.1165 95.2186C54.7267 98.0164 53.0293 100.629 51.48 103.345C50.1927 102.695 48.4498 102.463 47.5498 101.325Z" fill="#FFAB00"/>
<path d="M40.8285 128.398C41.7584 127.264 43.0878 126.547 44.5309 126.401C46.9346 127.156 47.2535 130.104 46.9346 132.206C46.7182 134.215 45.9054 136.11 44.6047 137.637C43.304 139.163 41.5774 140.249 39.6551 140.75C39.4501 136.71 37.9691 131.892 40.8285 128.398Z" fill="#FFAB00"/>
<path d="M58.2126 94.6149C59.2379 92.5253 60.491 90.5401 61.6302 88.5317C61.1973 90.7607 60.491 92.9084 59.8075 95.0793L58.2126 94.6149Z" fill="#FFAB00"/>
<path d="M92.0464 89.6114C94.9292 89.4766 97.8175 89.5347 100.693 89.7855C97.9224 90.0018 95.1429 90.0716 92.3654 89.9945C92.3654 98.2834 92.5476 106.572 92.24 114.85C91.9809 112.227 91.901 109.589 92.0008 106.956C92.0236 101.174 91.9553 95.3928 92.0464 89.6114Z" fill="#104D73"/>
<path d="M116.904 89.5998C119.843 89.5185 122.782 89.5301 125.732 89.5998C125.607 97.6565 125.972 105.737 125.55 113.793C125.55 105.853 125.55 97.9236 125.55 89.9829C122.763 89.9829 119.976 89.9829 117.188 89.9829C117.28 94.9748 117.188 99.9552 117.257 104.947C117.379 108.124 117.277 111.305 116.949 114.467C116.721 106.154 116.812 97.8771 116.904 89.5998Z" fill="#104D73"/>
<path d="M131.246 89.7855C133.802 89.488 136.377 89.3988 138.947 89.5185H156.069C158.472 89.3964 160.881 89.4857 163.268 89.7855C158.518 90.1222 153.756 89.8668 149.006 89.948C143.116 89.8668 137.17 90.157 131.246 89.7855Z" fill="#104D73"/>
<path d="M169.375 89.5998C174.205 89.4024 179.046 89.5998 183.876 89.5069C186.348 89.5069 188.98 89.3676 191.236 90.5982C187.51 89.6926 183.66 89.9713 179.844 89.948C176.426 89.948 173.088 89.948 169.716 89.948C169.716 102.869 169.716 115.802 169.716 128.723C172.439 128.723 175.173 128.723 177.907 128.723C177.907 124.857 177.702 120.979 178.089 117.114C178.37 121.085 178.431 125.069 178.272 129.048C175.298 129.164 172.314 129.176 169.34 129.048C169.295 115.871 169.261 102.73 169.375 89.5998Z" fill="#104D73"/>
<path d="M233.727 120.968C233.938 123.671 233.98 126.385 233.853 129.094C225.947 129.164 218.052 129.094 210.146 129.094C208.825 129.102 207.505 129.025 206.193 128.862C215.307 128.374 224.42 128.862 233.534 128.641C233.448 126.082 233.513 123.519 233.727 120.968Z" fill="#104D73"/>
<path d="M199.677 150.084C199.757 146.16 199.575 142.224 199.768 138.312L201.352 138.173C201.352 142.143 201.352 146.113 201.352 150.084H199.677Z" fill="#104D73"/>
<path d="M155.374 155.064H157.504L157.447 157.107H155.408C155.385 156.457 155.385 155.761 155.374 155.064Z" fill="#104D73"/>
<path d="M201.773 155.076H203.824C203.824 155.749 203.824 156.422 203.824 157.096H201.842C201.807 156.457 201.785 155.772 201.773 155.076Z" fill="#104D73"/>
<path d="M175.982 176.204H178.124C178.124 176.889 178.124 177.586 178.124 178.282H176.073C176.016 177.621 176.005 176.889 175.982 176.204Z" fill="#104D73"/>
<path d="M216.913 176.355C219.579 176.483 222.324 175.984 224.887 176.831C222.278 176.704 219.67 176.773 217.061 176.75C217.061 181.928 217.061 187.117 217.061 192.295C219.738 192.295 222.415 192.364 225.035 192.225H225.423C222.632 193.119 219.727 192.62 216.822 192.724C216.879 187.268 216.81 181.812 216.913 176.355Z" fill="#104D73"/>
</svg>
