<svg width="117" height="76" viewBox="0 0 117 76" fill="none" xmlns="http://www.w3.org/2000/svg">
<g clip-path="url(#clip0_103_320)">
<path d="M11.7221 6.79195C11.6402 6.55468 11.6211 6.30002 11.6667 6.05306C11.7124 5.8061 11.8212 5.57536 11.9824 5.38359C12.1437 5.19182 12.3518 5.04562 12.5863 4.95941C12.8209 4.8732 13.0737 4.84995 13.3198 4.89195C14.9783 5.32873 16.6064 5.89218 18.2561 6.3639L19.2069 6.65218C21.1737 7.25931 23.1491 7.84896 25.1158 8.45172L26.4182 8.84919C29.5152 9.78973 32.6136 10.7288 35.7135 11.6664C35.9524 11.7074 36.1808 11.7962 36.3851 11.9275C36.5895 12.0588 36.7655 12.2299 36.903 12.4308C37.0275 12.6379 37.0983 12.8732 37.1088 13.115C37.1194 13.3568 37.0695 13.5975 36.9636 13.8148C36.8578 14.0322 36.6994 14.2193 36.5029 14.3591C36.3065 14.4988 36.0783 14.5867 35.8394 14.6147C35.0883 14.6147 34.4023 14.2172 33.6686 14.1299C28.9797 29.7521 24.2836 45.3933 19.5803 61.0533C19.4816 61.4316 19.2872 61.7778 19.0159 62.0579C15.0304 66.4257 11.0492 70.8096 7.07235 75.2094C6.74318 75.5655 6.31896 75.8185 5.85052 75.9381C5.38208 76.0578 4.88928 76.0391 4.43114 75.8843C3.973 75.7294 3.56895 75.4449 3.26738 75.065C2.96582 74.685 2.77952 74.2256 2.73082 73.7418C1.83936 67.8657 0.937767 61.9924 0.0260449 56.1221C-0.0824935 55.5499 0.177999 55.0083 0.321269 54.471C4.44862 40.6978 8.58031 26.9247 12.7163 13.1515C13.1939 11.4655 13.7757 9.80574 14.1838 8.10229C13.3198 7.81839 12.0825 7.79655 11.7221 6.79195ZM16.958 8.97586C12.3097 24.5224 7.64544 40.0631 2.96526 55.5979C2.82633 56.157 3.0217 56.7248 3.08683 57.2795C3.88567 62.4248 4.66714 67.5701 5.47033 72.7154C9.13892 68.6359 12.8509 64.5869 16.5326 60.5205C16.7254 60.3266 16.8736 60.0925 16.9667 59.8347C21.6339 44.3071 26.2663 28.7621 30.9595 13.2432C28.8408 12.5662 26.7048 11.9329 24.5731 11.2952C24.1997 11.1758 23.8234 11.0506 23.4443 10.9195L23.4182 10.9545C21.8336 10.4391 20.2272 9.98919 18.6425 9.48252C18.3343 9.40827 18.0174 9.34275 17.7048 9.28161V9.21172L16.958 8.97586Z" fill="white"/>
<path d="M48.0087 17.1175C49.1158 17.1175 50.2272 17.1175 51.3386 17.1175C51.3386 18.0871 51.3386 19.0568 51.3386 20.0264H47.9913C48.0087 19.0524 48 18.0871 48.0087 17.1175Z" fill="white"/>
<path d="M54.2692 20.009C54.2317 19.0397 54.2636 18.069 54.3647 17.1044C55.4674 17.1349 56.5658 17.1044 57.6686 17.1044C57.6686 18.0784 57.6686 19.0481 57.6686 20.0177C56.5268 20.0221 55.3936 20.0395 54.2692 20.009Z" fill="white"/>
<path d="M35.3358 17.729C36.4168 17.729 37.5065 17.729 38.5745 17.729C38.4703 21.66 38.5398 25.6172 38.5355 29.5614C40.9624 29.592 43.3893 29.5614 45.8162 29.5614C45.8162 30.5267 45.8162 31.4876 45.8162 32.4529C42.3169 32.4529 38.8177 32.4529 35.3184 32.4529C35.4747 30.7887 35.3575 29.1159 35.3922 27.443C35.3661 24.2239 35.4964 20.9655 35.3358 17.729Z" fill="white"/>
<path d="M60.864 23.0184C60.9421 21.2713 60.8162 19.4892 60.9161 17.729C63.2605 17.8032 65.6223 17.5979 67.958 17.8775C69.2437 18.025 70.4669 18.5149 71.5017 19.2964C72.5366 20.078 73.3455 21.1231 73.8452 22.3239C74.4182 23.6342 74.3401 25.1062 74.2446 26.4995C73.7627 29.8802 70.5499 32.4529 67.207 32.466C65.0753 32.466 62.9436 32.5009 60.8162 32.4354C60.851 29.2949 60.9204 26.1588 60.864 23.0184ZM64.1635 20.7384C64.1635 21.1752 64.1635 21.6119 64.1635 22.0487C64.2113 23.2149 64.1635 24.3811 64.1114 25.543C64.2287 26.8533 64.1375 28.1986 64.1809 29.5264C65.0492 29.5264 65.9523 29.5264 66.8379 29.5264C67.5426 29.5198 68.2338 29.3316 68.8456 28.9799C69.4574 28.6282 69.9694 28.1246 70.3329 27.5172C70.7241 26.8096 70.9345 26.0153 70.9451 25.2056C70.9557 24.396 70.7662 23.5964 70.3936 22.8786C70.0528 22.2643 69.5633 21.7464 68.9706 21.3731C68.3779 20.9997 67.7011 20.7829 67.0029 20.7428C66.0695 20.7078 65.123 20.7428 64.1635 20.7384Z" fill="white"/>
<path d="M48.1259 21.2538C49.1505 21.2538 50.1751 21.2538 51.204 21.2538C51.204 24.9839 51.204 28.7184 51.204 32.4485C50.1708 32.4485 49.1375 32.4485 48.1042 32.4485C48.1302 28.7096 48.1129 24.9795 48.1259 21.2538Z" fill="white"/>
<path d="M54.3604 32.466C54.3604 28.7053 54.3604 24.949 54.3604 21.1883C55.411 21.1883 56.4573 21.1883 57.508 21.1883C57.5601 24.6432 57.508 28.0982 57.5297 31.5487C57.5297 31.8414 57.5731 32.1384 57.6078 32.4223C56.5355 32.5009 55.4457 32.4485 54.3604 32.466Z" fill="white"/>
<path d="M78.5818 33.7676C79.6498 33.7676 80.7178 33.7676 81.7858 33.7676C81.7554 37.4103 81.7858 41.0531 81.7858 44.6871C81.7855 44.9729 81.8279 45.2571 81.9117 45.5301C84.2996 45.469 86.6874 45.5301 89.0839 45.4952C89.0069 46.4526 88.9866 47.4137 89.0231 48.3736C85.5499 48.4391 82.0767 48.2731 78.6035 48.4565C78.6208 43.5733 78.6078 38.6726 78.5818 33.7676Z" fill="white"/>
<path d="M35.2011 33.8549C36.2597 33.8839 37.319 33.8577 38.3748 33.7763C38.3748 36.5848 38.3748 39.3933 38.3748 42.2018C38.3406 42.7341 38.4245 43.2673 38.6205 43.7629C38.8165 44.2585 39.1196 44.704 39.5079 45.0671C40.0718 45.4715 40.7436 45.6958 41.4359 45.7106C42.1282 45.7254 42.8089 45.5301 43.3893 45.1501C44.0352 44.6298 44.4567 43.8788 44.5658 43.0535C44.6906 41.8641 44.7298 40.6671 44.6831 39.4719C44.6831 37.5938 44.6831 35.72 44.657 33.8418C45.7192 33.8418 46.7815 33.8418 47.8437 33.8418C47.8437 36.8294 47.8437 39.8126 47.8437 42.8002C47.7612 44.5473 47.1187 46.3818 45.6729 47.465C44.4269 48.3583 42.9154 48.7974 41.3878 48.7099C39.8222 48.7891 38.2807 48.2975 37.0463 47.3253C35.9054 46.2564 35.2299 44.7779 35.1664 43.2108C35.275 40.0922 35.1881 36.9735 35.2011 33.8549Z" fill="white"/>
<path d="M50.0188 33.7807C52.2807 33.9161 54.5427 33.8113 56.809 33.8418C58.6194 33.8113 60.4341 33.9074 62.2446 33.7807C62.1273 34.7285 62.2793 35.6807 62.2446 36.6372L61.8538 36.7901C60.521 36.7901 59.1925 36.7901 57.8596 36.7028C57.5644 38.6377 57.9291 40.6338 57.7641 42.5687C57.8596 44.5343 57.6252 46.4998 57.8249 48.4653C56.7048 48.4915 55.5803 48.4915 54.4602 48.4653C54.4602 46.4998 54.4602 44.5343 54.4602 42.5687C54.4385 41.9179 54.4602 41.2584 54.4602 40.6207C54.4038 39.3103 54.4819 38 54.4037 36.6897C52.9363 36.7595 51.4689 36.7464 50.0014 36.6897C50.0275 35.7287 50.0318 34.7547 50.0188 33.7807Z" fill="white"/>
<path d="M64.6888 33.8331C65.9913 33.8331 67.2634 33.8331 68.5485 33.8331C69.9942 33.8331 71.4616 33.737 72.89 34.0777C73.7419 34.3336 74.5033 34.8295 75.0841 35.5067C75.6649 36.1839 76.041 37.0142 76.1679 37.8995C76.259 39.0264 76.2807 40.2276 75.7337 41.2496C74.9088 42.9356 73.0593 43.8703 71.2619 44.0188C70.1418 44.0887 69.013 44.045 67.8886 44.045C67.7409 45.4952 67.8365 46.954 67.8191 48.4129C66.7771 48.4129 65.7395 48.4129 64.6975 48.4129C64.6888 43.5602 64.6888 38.6945 64.6888 33.8331ZM67.8842 36.6896C67.8842 38.1791 67.8842 39.6685 67.8842 41.1579C69.1867 41.0575 70.602 41.42 71.822 40.8303C73.1983 40.1752 73.3546 37.9432 72.0434 37.1395C70.7323 36.3358 69.2605 36.8032 67.8842 36.6896Z" fill="white"/>
<path d="M44.5311 50.208H45.1823C45.1823 51.0816 45.1823 51.9552 45.1563 52.8287C45.5904 52.3919 46.1245 51.8896 46.8104 51.9552C48.0304 51.8547 49.0333 53.0253 48.9812 54.2046C49.0218 54.788 48.8366 55.3647 48.4644 55.814C48.0922 56.2633 47.5618 56.5505 46.9841 56.6156C46.259 56.7073 45.6469 56.24 45.1563 55.7683V56.4846H44.5094C44.5354 54.3793 44.5441 52.2915 44.5311 50.208ZM46.0941 52.7239C45.7051 52.9239 45.4075 53.2667 45.2629 53.6814C45.1182 54.096 45.1376 54.5508 45.3169 54.9515C45.4306 55.2504 45.6366 55.5046 45.9047 55.6768C46.1728 55.849 46.4888 55.9301 46.8061 55.908C47.7829 55.9866 48.4168 54.8772 48.2518 53.9949C48.191 52.9991 46.9971 52.1779 46.0941 52.7239Z" fill="white"/>
<path d="M75.9769 50.3697H76.78C76.78 50.6405 76.7497 50.9156 76.7366 51.1864C76.1766 51.2956 75.8813 50.8982 75.9769 50.3697Z" fill="#0D3E67"/>
<path d="M89.8133 50.1993H90.547C90.547 52.2755 90.547 54.3516 90.547 56.4278L89.809 56.4584C89.809 56.2618 89.809 55.8687 89.809 55.6722C89.2489 56.3754 88.2938 56.834 87.4168 56.454C85.7496 55.8731 85.4935 53.3136 86.8915 52.3046C87.3437 51.9917 87.897 51.8628 88.44 51.9439C88.9829 52.0249 89.4752 52.3099 89.8177 52.7414C89.8003 51.9159 89.8177 51.0554 89.8133 50.1993ZM87.508 52.7676C86.2967 53.449 86.5658 55.6678 87.9768 55.8949C88.2151 55.935 88.4592 55.9203 88.691 55.852C88.9228 55.7837 89.1362 55.6636 89.3153 55.5006C89.4945 55.3376 89.6347 55.136 89.7254 54.9108C89.8161 54.6856 89.8551 54.4427 89.8394 54.2002C89.8698 53.0733 88.5022 52.1037 87.5123 52.7676H87.508Z" fill="white"/>
<path d="M34.4197 50.4526H35.11C35.11 52.2478 35.11 54.0473 35.11 55.8425C36.2301 55.8425 37.3502 55.8425 38.4703 55.8425C38.4703 56.0522 38.4703 56.2793 38.4703 56.4802C37.1201 56.4802 35.7699 56.4802 34.4153 56.4802C34.4269 54.4623 34.4284 52.4531 34.4197 50.4526Z" fill="white"/>
<path d="M64.0029 51.9552C64.0029 51.4966 64.0029 51.0423 64.0029 50.5837C64.2851 50.5837 64.8235 50.5837 64.7323 51.0205C64.7323 51.3306 64.7323 51.6451 64.7323 51.9595H66.0912L66.1433 52.5361C65.6782 52.6225 65.2049 52.6562 64.7323 52.6366C64.7583 53.5844 64.6889 54.5322 64.7627 55.4756C64.9407 56.0653 65.7004 55.7464 66.1389 55.7857C66.1389 56.9388 64.1505 56.6593 64.0333 55.6766C63.9161 54.6938 64.0333 53.6499 63.9986 52.6191H63.4081C63.4081 52.3876 63.4081 52.1605 63.4081 51.9333L64.0029 51.9552Z" fill="white"/>
<path d="M56.3444 53.0515C56.5105 52.7047 56.7745 52.4149 57.1035 52.2183C57.4325 52.0218 57.8118 51.9272 58.1939 51.9464C58.1939 52.1867 58.1939 52.4269 58.1939 52.6715C57.8957 52.6661 57.6007 52.7346 57.3349 52.871C57.0692 53.0073 56.8408 53.2073 56.67 53.4533C56.1317 54.3662 56.3705 55.4756 56.3184 56.4846L55.6107 56.4365C55.6411 55.1 55.6107 53.7634 55.6107 52.4269C55.5325 52.0119 56.0145 51.9901 56.2923 51.9901C56.3053 52.3308 56.3227 52.689 56.3444 53.0515Z" fill="white"/>
<path d="M73.2851 52.8942C73.4857 52.6124 73.745 52.3781 74.0449 52.2076C74.3449 52.0371 74.6783 51.9345 75.0217 51.9071C75.0217 52.1648 75.0217 52.4225 75.0217 52.6802C74.7601 52.6774 74.5012 52.734 74.2644 52.846C74.0275 52.9579 73.8189 53.1222 73.6541 53.3267C72.9899 54.2352 73.3415 55.4276 73.259 56.4715H72.521C72.521 54.9908 72.521 53.5101 72.521 52.0294H73.2417C73.2677 52.3002 73.2764 52.5972 73.2851 52.8942Z" fill="white"/>
<path d="M39.725 52.2303C40.5543 52.0076 41.4617 51.7936 42.2952 52.1604C42.5755 52.3225 42.8053 52.56 42.9587 52.8463C43.1121 53.1326 43.1831 53.4563 43.1635 53.7809C43.1896 54.6545 43.1635 55.563 43.1635 56.4584H42.4732C42.4732 56.323 42.4385 56.0609 42.4255 55.9255C41.6614 56.7554 40.1549 56.8602 39.4472 55.9255C39.3315 55.7581 39.2549 55.5665 39.2231 55.3651C39.1913 55.1636 39.2051 54.9576 39.2636 54.7623C39.322 54.567 39.4235 54.3876 39.5606 54.2373C39.6976 54.087 39.8666 53.9698 40.055 53.8945C40.8462 53.6632 41.6864 53.6632 42.4776 53.8945C42.4864 53.6826 42.444 53.4718 42.354 53.2801C42.264 53.0884 42.1291 52.9215 41.9609 52.7938C41.275 52.357 40.4457 52.6627 39.7641 52.9423C39.7641 52.7021 39.7424 52.4662 39.725 52.2303ZM40.2113 54.554C40.1075 54.6474 40.0301 54.7668 39.987 54.9C39.9438 55.0332 39.9364 55.1755 39.9655 55.3125C39.9946 55.4495 40.0591 55.5763 40.1526 55.6801C40.2461 55.7839 40.3652 55.8611 40.4978 55.9037C41.479 56.3929 42.7902 55.4669 42.4645 54.3487C41.7265 54.3444 40.8408 54.0386 40.2113 54.554Z" fill="white"/>
<path d="M51.4428 52.0425C52.8321 51.5315 54.5948 52.6234 54.4819 54.1828C54.6643 55.6897 53.0535 56.9519 51.6339 56.537C51.3313 56.4587 51.0474 56.3202 50.799 56.1296C50.5506 55.939 50.3427 55.7002 50.1877 55.4273C50.0327 55.1545 49.9336 54.8531 49.8964 54.541C49.8592 54.229 49.8846 53.9126 49.9711 53.6106C50.0669 53.2464 50.2518 52.9122 50.5089 52.6384C50.7659 52.3645 51.087 52.1597 51.4428 52.0425ZM50.7135 54.9078C50.8479 55.2041 51.0537 55.4619 51.3122 55.6579C51.5707 55.854 51.8738 55.982 52.1939 56.0303C52.4834 55.9883 52.7597 55.8813 53.0024 55.7172C53.2452 55.5531 53.4481 55.3362 53.5962 55.0825C54.2084 54.0561 53.3922 52.5186 52.1809 52.5536C51.0391 52.5055 50.2185 53.9076 50.7135 54.9078Z" fill="white"/>
<path d="M58.9841 52.2347C59.8524 52.0163 60.8032 51.7761 61.6498 52.1823C61.9227 52.3493 62.1432 52.5903 62.2861 52.8777C62.4289 53.1651 62.4883 53.4873 62.4573 53.8071C62.4573 54.6807 62.4573 55.5542 62.4573 56.4584H61.7757C61.7757 56.3273 61.7366 56.0696 61.7236 55.9386C61.3948 56.2882 60.9568 56.5136 60.4826 56.5772C60.0085 56.6408 59.527 56.5388 59.1187 56.288C58.7062 56.0478 58.5977 55.5673 58.4501 55.1524C58.5977 54.7156 58.7106 54.2264 59.1491 53.9949C59.9436 53.5582 60.8857 53.6892 61.754 53.8901C61.7805 53.7001 61.7612 53.5065 61.6977 53.3256C61.6342 53.1447 61.5284 52.9817 61.3893 52.8506C60.7033 52.3221 59.8177 52.6802 59.0709 52.8506C59.0391 52.6496 59.0101 52.4444 58.9841 52.2347ZM59.4182 54.6588C58.9841 55.0956 59.3835 55.7857 59.8915 55.9692C60.864 56.3448 62.0622 55.4363 61.7192 54.3575C60.9682 54.34 60 54.008 59.4182 54.6588Z" fill="white"/>
<path d="M68.2098 52.0949C69.6208 51.4616 71.5137 52.571 71.3878 54.1959C71.5702 55.7639 69.7901 57.0393 68.3488 56.489C68.0463 56.3856 67.7682 56.2209 67.5317 56.0049C67.2952 55.789 67.1053 55.5265 66.9739 55.2337C66.8424 54.9408 66.7721 54.624 66.7674 54.3027C66.7627 53.9814 66.8236 53.6626 66.9464 53.366C67.0553 53.0761 67.2243 52.8128 67.4421 52.5936C67.66 52.3745 67.9217 52.2045 68.2098 52.0949ZM68.2706 52.7763C68.0108 52.9568 67.8041 53.2043 67.6721 53.4928C67.5402 53.7814 67.4879 54.1003 67.5208 54.4162C67.5537 54.7321 67.6705 55.0333 67.8589 55.2881C68.0474 55.5429 68.3006 55.7419 68.5919 55.8644C69.6339 56.3011 70.7974 55.2747 70.7105 54.1915C70.7062 53.0165 69.3039 52.0862 68.2706 52.7763Z" fill="white"/>
<path d="M79.3763 52.0993C80.7829 51.4572 82.6889 52.5623 82.563 54.1871C82.7323 55.694 81.1042 56.9563 79.6889 56.537C79.3869 56.4566 79.1042 56.3159 78.8575 56.1233C78.6108 55.9306 78.4051 55.69 78.2528 55.4157C78.1004 55.1414 78.0046 54.839 77.9708 54.5267C77.9371 54.2143 77.9662 53.8983 78.0564 53.5975C78.1418 53.26 78.3061 52.9479 78.5357 52.6873C78.7653 52.4267 79.0535 52.2251 79.3763 52.0993ZM78.8857 55.0738C79.0338 55.327 79.2361 55.5438 79.4779 55.7085C79.7198 55.8732 79.995 55.9816 80.2836 56.026C80.5806 55.9829 80.8634 55.8709 81.1098 55.6988C81.3562 55.5268 81.5594 55.2993 81.7033 55.0345C82.2721 54.0168 81.4732 52.5405 80.2967 52.5536C79.0593 52.4575 78.2518 54.0648 78.8857 55.0738Z" fill="white"/>
<path d="M92.5007 52.3614C92.9176 52.0377 93.4408 51.8849 93.9651 51.9335C94.4894 51.9821 94.976 52.2286 95.3271 52.6234C95.796 53.117 95.822 53.8333 95.9045 54.471C94.7019 54.5278 93.5036 54.471 92.301 54.5147C92.5051 55.0694 92.7569 55.7071 93.3821 55.8818C94.068 56.205 94.7279 55.729 95.3054 55.4014C95.5181 55.445 95.5962 55.6634 95.7091 55.8381C95.3683 56.1856 94.9366 56.4287 94.464 56.5392C93.9914 56.6498 93.4973 56.6233 93.0391 56.4627C91.4327 55.86 91.1939 53.3878 92.5007 52.3614ZM92.3357 53.9469C93.2909 53.9469 94.246 53.9469 95.2012 53.9469C95.0232 53.2742 94.5716 52.5055 93.7771 52.5492C92.987 52.4968 92.5051 53.2873 92.3357 53.9469Z" fill="white"/>
<path d="M5.97396 54.3793C6.07704 53.9443 6.32867 53.5595 6.68493 53.2921C7.04119 53.0247 7.47948 52.8916 7.92331 52.9161C8.19262 52.9509 8.45029 53.0479 8.67621 53.1994C8.90214 53.351 9.09021 53.553 9.22577 53.7896C9.69465 54.5191 9.83792 55.397 10.1201 56.205C8.21419 56.2356 6.32562 57.3145 5.61361 59.1446C5.49639 58.271 5.35746 57.3669 5.20551 56.4846C5.51375 56.3798 5.93488 56.323 6.0304 55.943C6.00435 55.4319 5.81766 54.8991 5.97396 54.3793Z" fill="#0D3E67"/>
<path d="M8.10131 57.8517C8.82798 57.4967 9.61435 57.2819 10.4197 57.2184C10.6292 57.8105 10.8046 58.4143 10.945 59.0267C10.8456 59.9486 10.4111 60.801 9.72504 61.4202C9.45938 61.6346 9.14592 61.7808 8.81163 61.8462C8.47734 61.9117 8.13226 61.8944 7.80609 61.7959C7.44512 61.611 7.14824 61.3206 6.95451 60.9627C6.76077 60.6049 6.67926 60.1964 6.7207 59.791C6.77262 59.3779 6.92602 58.9842 7.16706 58.6456C7.40811 58.307 7.72919 58.0342 8.10131 57.8517Z" fill="#0D3E67"/>
<path d="M81.6208 58.0919L82.4153 58.4195L81.4298 59.3586H80.809C81.1085 58.9655 81.382 58.5287 81.6208 58.0919Z" fill="white"/>
<path d="M34.5239 58.1487H35.1881C35.1881 60.1841 35.2098 62.2195 35.1881 64.2637H34.5412C34.5065 62.2195 34.5195 60.1841 34.5239 58.1487Z" fill="white"/>
<path d="M55.958 58.7122H56.7048C56.7048 59.1315 56.7048 59.5537 56.7048 59.9789H58.0941C58.0941 60.2016 58.0941 60.4156 58.0941 60.6602C57.6339 60.6602 57.1737 60.6602 56.7135 60.6602C56.7135 61.5338 56.6874 62.4336 56.7352 63.3159C56.6874 63.709 57.1259 63.8356 57.3951 63.9885L58.1418 63.7745C58.3242 64.9407 56.4052 64.7878 56.123 63.8924C55.8495 62.8572 56.0449 61.7653 55.9884 60.7083C55.8953 60.7254 55.7994 60.7176 55.7102 60.6855C55.6211 60.6535 55.542 60.5984 55.4808 60.5257C55.4196 60.4531 55.3785 60.3655 55.3617 60.2718C55.3448 60.1781 55.3529 60.0816 55.385 59.992H55.9928C55.9754 59.5494 55.9638 59.1228 55.958 58.7122Z" fill="white"/>
<path d="M36.8336 59.9657H37.4675C37.4675 60.1405 37.4675 60.4943 37.4371 60.6733C37.8365 60.2933 38.3054 59.8697 38.8958 59.9439C39.1029 59.9165 39.3134 59.9312 39.5148 59.9871C39.7162 60.0429 39.9045 60.1388 40.0684 60.2692C40.2323 60.3995 40.3686 60.5615 40.4692 60.7457C40.5698 60.9299 40.6327 61.1325 40.6541 61.3416C40.7149 62.3986 40.6541 63.46 40.6541 64.1982H39.9595C39.9074 63.4425 40.0507 62.3462 39.8727 61.2805C39.4385 60.1885 37.7453 60.4069 37.5109 61.5207C37.3589 62.5122 37.5109 63.5211 37.4371 64.7441H36.8423C36.8206 62.997 36.8336 61.4814 36.8336 59.9657Z" fill="white"/>
<path d="M41.4182 59.7954H42.1737C42.6729 61.014 43.1245 62.2545 43.6845 63.4513C44.1174 62.1997 44.6159 60.972 45.178 59.7736L45.8553 59.8085C45.2562 61.346 44.5789 62.866 43.919 64.3598H43.3329C42.6947 62.8354 42.0087 61.3372 41.4182 59.7954Z" fill="white"/>
<path d="M46.9494 60.5598C47.7786 59.6032 49.5543 59.7212 50.1751 60.8524C50.4365 61.3528 50.5665 61.9121 50.5528 62.4772C49.3763 62.4772 48.1954 62.4772 47.0188 62.4772C47.0533 62.9014 47.2517 63.2951 47.5716 63.5736C47.8915 63.8521 48.3072 63.9932 48.7294 63.9667C49.3633 64.006 49.9059 62.9664 50.466 63.7133C50.0839 64.1673 49.5504 64.4656 48.9655 64.5525C48.3805 64.6393 47.7841 64.5087 47.288 64.185C47.017 63.9781 46.7917 63.7168 46.6263 63.4176C46.4609 63.1185 46.3591 62.788 46.3272 62.4472C46.2954 62.1064 46.3342 61.7627 46.4413 61.4378C46.5484 61.1129 46.7214 60.8139 46.9494 60.5598ZM47.0101 61.988H49.8321C49.7453 61.2936 49.2981 60.5423 48.5297 60.503C47.7135 60.4331 47.1013 61.228 47.0101 61.988Z" fill="white"/>
<path d="M52.0159 60.1973C52.8191 59.6775 53.8307 60.0007 54.6208 60.3851L54.3169 60.9529C53.8177 60.7476 53.3054 60.4419 52.7453 60.5161C52.411 60.6035 52.2373 60.9179 52.0246 61.1582C52.602 62.0055 53.8307 61.7871 54.4906 62.5253C54.6067 62.7693 54.6998 63.0237 54.7685 63.2853C54.5905 63.7221 54.3864 64.2331 53.9001 64.4035C53.4477 64.5393 52.9697 64.565 52.5054 64.4785C52.0412 64.3919 51.6041 64.1955 51.2301 63.9055L51.5861 63.3683C52.1983 63.7133 52.9711 64.2069 53.67 63.8051C54.0478 63.6566 54.1997 63.0582 53.809 62.8442C53.11 62.4074 52.0724 62.4685 51.5991 61.7173C51.4728 61.4563 51.4454 61.1579 51.5222 60.8781C51.5989 60.5982 51.7744 60.3562 52.0159 60.1973Z" fill="white"/>
<path d="M59.2489 59.9657H59.9696C59.9696 61.4857 59.9696 63.0232 59.9696 64.5301H59.2532C59.2417 62.9985 59.2402 61.477 59.2489 59.9657Z" fill="white"/>
<path d="M61.4327 60.9835C62.11 59.6731 64.0854 59.5858 64.9884 60.7083C64.9884 60.5074 65.0145 60.1099 65.0231 59.9046C65.2533 59.9701 65.4877 60.0313 65.7221 60.0881C65.6527 61.3635 65.7221 62.6389 65.6787 63.9143C65.6665 64.3295 65.525 64.7303 65.2741 65.0602C65.0233 65.3902 64.6758 65.6325 64.2807 65.7531C63.8008 65.8722 63.3022 65.895 62.8135 65.82C62.3248 65.7451 61.8556 65.5739 61.4327 65.3163L61.5933 64.7005C62.3618 65.0324 63.2127 65.4867 64.0637 65.1372C64.8278 64.8883 65.0752 63.9972 64.9971 63.2722C64.437 63.8793 63.6035 64.3423 62.7612 64.0671C62.4504 63.9843 62.1623 63.8317 61.9185 63.6208C61.6748 63.4099 61.4817 63.1461 61.3538 62.8493C61.226 62.5525 61.1666 62.2305 61.1803 61.9073C61.194 61.5841 61.2802 61.2683 61.4327 60.9835ZM62.6657 60.717C62.4516 60.8349 62.2702 61.0048 62.1381 61.2112C62.006 61.4176 61.9272 61.654 61.9091 61.8989C61.891 62.1437 61.934 62.3893 62.0343 62.6131C62.1346 62.8369 62.289 63.032 62.4833 63.1805C62.7041 63.346 62.9638 63.4511 63.237 63.4853C63.5103 63.5195 63.7877 63.4816 64.042 63.3755C64.2963 63.2694 64.5189 63.0986 64.6878 62.8798C64.8568 62.6611 64.9663 62.402 65.0058 62.1278C65.123 60.9573 63.6339 60.1317 62.67 60.7127L62.6657 60.717Z" fill="white"/>
<path d="M67.1027 60.3501C67.9928 59.9133 69.1302 59.7168 70.0159 60.2715C70.5847 60.6122 70.6845 61.3329 70.7106 61.9444C70.7106 62.6607 70.7106 63.377 70.7106 64.0933C70.7844 64.4864 70.3372 64.5301 70.0593 64.5607L69.9725 63.9099C69.6342 64.279 69.1749 64.5131 68.6789 64.5693C68.183 64.6254 67.6835 64.4999 67.2721 64.2156C67.1034 64.0867 66.9676 63.9194 66.8755 63.7275C66.7835 63.5356 66.738 63.3245 66.7426 63.1114C66.7473 62.8984 66.802 62.6895 66.9023 62.5018C67.0027 62.3142 67.1457 62.1531 67.3198 62.0317C68.1317 61.4901 69.165 61.6736 70.0593 61.857C70.0941 61.0621 69.4428 60.6078 68.7569 60.4899C68.2973 60.5964 67.8436 60.7277 67.398 60.883L67.1027 60.3501ZM67.4588 62.8441C67.4588 63.0101 67.5065 63.3421 67.5239 63.5124C67.6628 63.6691 67.833 63.7945 68.0234 63.8803C68.2138 63.9661 68.4201 64.0105 68.6288 64.0105C68.8375 64.0105 69.0438 63.9661 69.2342 63.8803C69.4246 63.7945 69.5948 63.6691 69.7337 63.5124C69.9596 63.2014 70.0743 62.8228 70.0593 62.4379C69.1954 62.2021 68.0579 61.9924 67.4544 62.8398L67.4588 62.8441Z" fill="white"/>
<path d="M72.2171 60.7913C72.4381 60.5213 72.7153 60.3034 73.0291 60.1528C73.343 60.0023 73.6858 59.9228 74.0334 59.9198C74.3811 59.9169 74.7251 59.9907 75.0414 60.136C75.3577 60.2812 75.6384 60.4945 75.864 60.7607L75.3213 61.1669C74.8871 60.7956 74.3227 60.3807 73.7105 60.5685C73.4632 60.6362 73.2342 60.759 73.0404 60.9277C72.8466 61.0965 72.693 61.3068 72.5909 61.5433C72.4888 61.7798 72.4408 62.0364 72.4505 62.2941C72.4602 62.5517 72.5273 62.8039 72.6469 63.0319C72.781 63.3116 72.9914 63.5471 73.2535 63.7111C73.5157 63.875 73.8187 63.9606 74.1273 63.9579C74.6183 63.8468 75.0746 63.6158 75.4558 63.2853L75.8596 63.7221C75.5205 64.1203 75.0627 64.3978 74.5543 64.5135C74.046 64.6291 73.5141 64.5768 73.0376 64.3641C72.7292 64.2044 72.459 63.9789 72.246 63.7035C72.0329 63.428 71.8821 63.1091 71.804 62.7691C71.7259 62.429 71.7224 62.0759 71.7938 61.7343C71.8651 61.3928 72.0095 61.071 72.2171 60.7913Z" fill="white"/>
<path d="M76.958 59.9177L77.657 60.0793C77.6136 61.4159 77.657 62.7568 77.657 64.0933C77.7395 64.5039 77.2489 64.5301 76.9797 64.5563C76.945 63.0101 76.9493 61.4639 76.958 59.9177Z" fill="white"/>
<path d="M80.3444 60.0487C80.7836 59.8952 81.2574 59.872 81.7093 59.982C82.1611 60.092 82.572 60.3305 82.8929 60.669C83.2966 61.1377 83.5025 61.7464 83.4668 62.3656C83.4312 62.9848 83.1567 63.5655 82.7019 63.9841C82.4562 64.2077 82.1659 64.3758 81.8504 64.4772C81.5349 64.5786 81.2015 64.6109 80.8726 64.572C80.5437 64.5331 80.2268 64.4239 79.9433 64.2517C79.6597 64.0795 79.4161 63.8483 79.2286 63.5736C78.3907 62.3943 78.9334 60.4899 80.3444 60.0487ZM80.3791 60.7389C79.2199 61.3634 79.3285 63.3071 80.5354 63.7963C81.5296 64.3117 82.767 63.3595 82.7453 62.3069C82.8929 61.1494 81.4341 60.0487 80.3791 60.7389Z" fill="white"/>
<path d="M84.6295 64.5607C84.6034 63.0145 84.6295 61.4683 84.6295 59.9177C85.0637 59.8697 85.4544 60.0706 85.4153 60.5685C86.1881 59.4897 88.1765 59.7867 88.4544 61.1451C88.5266 62.2748 88.5411 63.4076 88.4978 64.5389C88.1765 64.5389 87.6903 64.5389 87.7728 64.1021C87.7163 63.1586 87.8596 62.2021 87.7076 61.263C87.3082 60.2497 85.7236 60.3894 85.4066 61.394C85.3335 62.3926 85.3248 63.395 85.3806 64.3947L84.6295 64.5607Z" fill="white"/>
<path d="M92.8524 60.4418C93.0682 60.2529 93.3202 60.1104 93.5928 60.0231C93.8654 59.9357 94.1529 59.9055 94.4376 59.9341C94.7223 59.9628 94.9981 60.0497 95.2481 60.1896C95.4982 60.3295 95.7171 60.5194 95.8915 60.7476C96.1973 61.2626 96.3481 61.8559 96.3256 62.4554C95.1447 62.4903 93.9638 62.4554 92.7873 62.4554C92.8203 62.7454 92.925 63.0225 93.0918 63.2613C93.2587 63.5001 93.4823 63.6931 93.7424 63.8225C94.4284 64.1632 95.1881 63.7963 95.7091 63.3202L96.1997 63.7002C95.8331 64.1291 95.3311 64.4182 94.7779 64.5192C94.2246 64.6202 93.6537 64.5269 93.1606 64.2549C91.8886 63.5037 91.7713 61.4464 92.8524 60.4418ZM92.8263 61.988C93.7684 61.988 94.7106 61.988 95.6483 61.988C95.6201 61.6648 95.5004 61.3564 95.3034 61.0995C95.1064 60.8425 94.8405 60.6476 94.5369 60.5379C93.6469 60.3064 92.9088 61.1494 92.8263 61.988Z" fill="white"/>
<path d="M8.30536 63.0713C9.84661 63.0975 10.9363 61.7041 11.4182 60.3719C11.6397 60.9529 11.8524 61.6037 12.4428 61.9007C10.9711 63.4382 9.59046 65.0674 8.10131 66.6048C8.01435 66.7143 7.89929 66.7978 7.76857 66.8463C7.63785 66.8948 7.49645 66.9064 7.35965 66.8798C7.22286 66.8533 7.09588 66.7897 6.99244 66.6958C6.88901 66.6019 6.81305 66.4813 6.7728 66.3471C6.41245 64.9145 6.36035 63.4207 6.01303 61.9793C6.28508 62.3274 6.63371 62.6072 7.03149 62.7966C7.42927 62.9861 7.86533 63.0801 8.30536 63.0713Z" fill="#0D3E67"/>
<path d="M71.8263 66.155C72.0955 66.0676 72.3517 66.3253 72.6035 66.3952C72.1693 66.832 71.7352 67.474 71.0492 67.3255C71.2779 66.9158 71.5377 66.5244 71.8263 66.155Z" fill="white"/>
<path d="M34.5152 66.4476H35.1968C35.1968 68.4524 35.1968 70.4572 35.1968 72.4621H34.5326C34.4978 70.4572 34.5326 68.4524 34.5152 66.4476Z" fill="white"/>
<path d="M82.7323 66.5044C83.7265 66.5044 84.7207 66.5044 85.7149 66.5349C86.1622 66.6424 86.5787 66.8525 86.932 67.1488C87.2852 67.445 87.5655 67.8194 87.7511 68.2428C88.4327 69.8457 87.5297 71.9423 85.7931 72.331C84.7728 72.3834 83.7525 72.3616 82.754 72.3572C82.7236 70.4048 82.7323 68.4524 82.7323 66.5044ZM83.4139 67.1115C83.4139 68.6664 83.4139 70.2214 83.4139 71.7807C84.0247 71.8015 84.6362 71.7913 85.246 71.7501C85.6495 71.6922 86.0309 71.5291 86.3523 71.277C86.6737 71.0249 86.9239 70.6926 87.0782 70.3131C87.3517 69.3828 87.2041 68.2253 86.3705 67.6225C85.5282 66.9237 84.4081 67.1202 83.4139 67.1115Z" fill="white"/>
<path d="M109.841 66.6835H110.557C110.557 67.1202 110.557 67.557 110.557 67.9938H111.946L111.968 68.6053C111.491 68.6053 111.014 68.614 110.54 68.6315C110.579 69.5575 110.505 70.4878 110.579 71.4138C110.614 71.7152 110.948 71.7982 111.152 71.9641C111.408 71.8811 111.669 71.8025 111.933 71.7239C111.855 71.9641 112.003 72.4009 111.673 72.4708C111.043 72.6411 110.127 72.5669 109.936 71.8113C109.75 70.7586 109.91 69.6798 109.845 68.6184H109.229V67.9763L109.784 68.0113C109.805 67.5687 109.823 67.1261 109.841 66.6835Z" fill="white"/>
<path d="M36.8249 67.9938H37.4891C37.4891 68.1554 37.4457 68.483 37.4327 68.6446C37.635 68.3942 37.8927 68.1947 38.1851 68.062C38.4775 67.9293 38.7967 67.8671 39.1172 67.8802C39.5297 67.8958 39.9207 68.0697 40.2097 68.3662C40.4988 68.6627 40.664 69.0593 40.6715 69.4745C40.7019 70.466 40.6715 71.4531 40.6715 72.4402H39.9768C39.9161 71.3832 40.0767 70.3087 39.8857 69.2692C39.5297 68.186 37.7757 68.3956 37.5369 69.4526C37.3632 70.4354 37.5369 71.4531 37.4501 72.449H36.8336C36.8205 70.9683 36.8379 69.4832 36.8249 67.9938Z" fill="white"/>
<path d="M42.0304 67.9938H42.7164C42.7164 68.1292 42.7164 68.4 42.7164 68.5354C43.1939 68.2122 43.7019 67.806 44.3184 67.8846C44.7083 67.8807 45.086 68.0215 45.3792 68.2802C45.6723 68.5389 45.8604 68.8972 45.9074 69.2867C45.9508 70.3481 45.9074 71.4051 45.9074 72.4664H45.1954C45.1606 71.4313 45.2475 70.3917 45.152 69.3566C44.8741 68.2777 43.1549 68.3476 42.8336 69.3566C42.5818 70.3699 42.7858 71.4313 42.7033 72.4664H42.0521C42.0217 70.9683 42.0391 69.4832 42.0304 67.9938Z" fill="white"/>
<path d="M48.5818 68.0025C48.8763 67.9041 49.1876 67.8662 49.497 67.891C49.8064 67.9159 50.1077 68.003 50.3831 68.1472C50.6584 68.2914 50.9022 68.4898 51.0999 68.7305C51.2976 68.9713 51.4452 69.2495 51.534 69.5487C51.693 70.0998 51.6487 70.6901 51.4094 71.211C51.1701 71.7319 50.7518 72.1482 50.2315 72.3835C48.9291 72.9775 47.1577 72.1432 47.0318 70.6363C46.9254 70.0826 47.0243 69.5088 47.3099 69.0235C47.5955 68.5381 48.048 68.1749 48.5818 68.0025ZM48.6295 68.6664C48.382 68.7957 48.1691 68.983 48.0087 69.2125C47.8484 69.442 47.7453 69.707 47.7083 69.985C47.6712 70.2631 47.7013 70.546 47.7959 70.8099C47.8905 71.0738 48.0469 71.3109 48.2518 71.5012C48.445 71.6824 48.6808 71.8113 48.9371 71.8757C49.1934 71.9402 49.4617 71.938 49.717 71.8694C49.9722 71.8009 50.2059 71.6682 50.3962 71.4838C50.5864 71.2994 50.727 71.0694 50.8046 70.8154C51.369 69.5356 49.9276 68.0287 48.6252 68.6664H48.6295Z" fill="white"/>
<path d="M52.0463 68.0156C52.3111 68.0156 52.5716 68.0156 52.8408 68.0156C53.2981 69.1367 53.7496 70.2607 54.1954 71.3876L54.3777 71.4225C54.8466 70.2825 55.2851 69.1294 55.7757 68.0025L56.5441 68.0375C55.8408 69.5269 55.2417 71.0644 54.5557 72.5538L53.9262 72.4621C53.3488 70.9464 52.6888 69.4832 52.0463 68.0156Z" fill="white"/>
<path d="M57.3082 68.3039C58.2504 67.9283 59.4182 67.6662 60.3082 68.3039C60.8509 68.7058 60.8857 69.4308 60.903 70.051C60.946 70.8578 60.9096 71.6669 60.7945 72.4665H60.2258C60.2258 72.3311 60.1997 72.069 60.191 71.9379C59.4616 72.6062 58.246 72.8115 57.4385 72.1782C57.2859 72.0528 57.163 71.8949 57.0786 71.7159C56.9941 71.5368 56.9503 71.3412 56.9503 71.143C56.9503 70.9448 56.9941 70.7492 57.0786 70.5701C57.163 70.3911 57.2859 70.2332 57.4385 70.1078C58.2634 69.492 59.3314 69.6929 60.2692 69.8501C60.264 69.6315 60.2083 69.417 60.1066 69.2237C60.0049 69.0304 59.8599 68.8636 59.6831 68.7363C59.0101 68.4218 58.233 68.6271 57.5774 68.8892L57.3082 68.3039ZM57.903 70.5621C57.343 71.0469 57.903 71.9729 58.5456 71.9729C58.7654 72.0188 58.993 72.0115 59.2095 71.9515C59.426 71.8915 59.6252 71.7805 59.7906 71.6277C59.956 71.475 60.083 71.2848 60.1609 71.0729C60.2388 70.861 60.2655 70.6335 60.2388 70.4092C59.479 70.2476 58.5326 69.9855 57.8813 70.5577L57.903 70.5621Z" fill="white"/>
<path d="M62.3401 68.8717C63.1606 67.6051 65.0926 67.6051 66.0608 68.7014L65.5398 69.1819C65.1682 68.8596 64.7396 68.6107 64.2764 68.4481C64.0111 68.485 63.7557 68.5742 63.5247 68.7107C63.2938 68.8471 63.0919 69.028 62.9305 69.243C62.2315 70.2127 62.8914 71.82 64.1027 71.9205C64.7192 72.0166 65.2098 71.571 65.683 71.2478L66.0304 71.7938C65.7556 72.0701 65.4224 72.2804 65.0555 72.409C64.6886 72.5376 64.2976 72.5811 63.9117 72.5363C62.2359 72.4097 61.3285 70.1908 62.3401 68.8717Z" fill="white"/>
<path d="M67.1288 67.9807L67.8538 68.0113C67.8538 69.492 67.8538 70.9683 67.8538 72.449H67.1418C67.1201 70.9683 67.1201 69.4745 67.1288 67.9807Z" fill="white"/>
<path d="M70.7236 67.972C71.0468 67.8818 71.3856 67.8632 71.7166 67.9176C72.0476 67.9719 72.363 68.0978 72.6409 68.2867C72.9188 68.4756 73.1527 68.7229 73.3264 69.0115C73.5002 69.3001 73.6095 69.6233 73.6471 69.9586C73.6846 70.2939 73.6494 70.6334 73.5438 70.9536C73.4382 71.2739 73.2649 71.5673 73.0356 71.8136C72.8064 72.06 72.5268 72.2533 72.2161 72.3803C71.9053 72.5074 71.5709 72.5651 71.2359 72.5494C70.6888 72.5177 70.1705 72.2924 69.7726 71.9133C69.3747 71.5342 69.1228 71.0258 69.0615 70.478C69.0002 69.9301 69.1334 69.3781 69.4376 68.9195C69.7417 68.461 70.1972 68.1253 70.7236 67.972ZM70.1114 69.1163C69.9461 69.3348 69.8331 69.5888 69.7814 69.8584C69.7297 70.1281 69.7406 70.4061 69.8133 70.6708C69.886 70.9355 70.0185 71.1797 70.2005 71.3843C70.3825 71.589 70.6091 71.7486 70.8625 71.8506C71.9349 72.2524 73.1201 71.1692 72.9248 70.0598C72.9248 69.1862 72.1433 68.6708 71.4052 68.4524C70.945 68.6009 70.4067 68.6927 70.1114 69.1163Z" fill="white"/>
<path d="M74.7873 67.9676C75.0245 67.9844 75.2607 68.0136 75.4949 68.0549L75.5644 68.6053C76.2981 67.4871 78.2822 67.7317 78.6035 69.0421C78.7294 70.169 78.6295 71.3133 78.6469 72.4446H78.0261C77.9522 71.357 78.152 70.2607 77.8437 69.1775C77.4096 68.2384 75.8553 68.3738 75.5687 69.3522C75.4168 70.2258 75.5687 71.1343 75.5036 72.0253C75.5774 72.4621 75.0695 72.4621 74.7829 72.4621C74.7742 70.9858 74.7916 69.4745 74.7873 67.9676Z" fill="white"/>
<path d="M90.7381 67.9501C91.3107 67.8104 91.9147 67.8939 92.4286 68.184C92.9425 68.4741 93.3282 68.9492 93.508 69.5138C93.6756 70.0374 93.6553 70.6036 93.4506 71.1137C93.2459 71.6237 92.8699 72.0454 92.3879 72.3053C91.906 72.5651 91.3487 72.6466 90.8132 72.5356C90.2777 72.4246 89.7979 72.1281 89.4573 71.6977C88.4327 70.4485 89.1013 68.2602 90.7381 67.9501ZM89.8394 69.4963C89.2793 70.5664 90.2214 72.117 91.4544 71.9205C92.6006 71.8418 93.2475 70.3743 92.6874 69.4133C92.4226 68.8455 91.8191 68.6184 91.2677 68.4481C90.9621 68.4952 90.6719 68.6149 90.4213 68.7972C90.1707 68.9795 89.9667 69.2191 89.8263 69.4963H89.8394Z" fill="white"/>
<path d="M95.1317 68.5398C95.3683 68.3218 95.6455 68.1532 95.9472 68.0435C96.2489 67.9338 96.5692 67.8853 96.8896 67.9007C97.2101 67.9161 97.5243 67.9952 97.8142 68.1334C98.1041 68.2715 98.364 68.4661 98.5789 68.7058C98.4095 68.8674 98.2402 69.029 98.0752 69.1949C97.5326 68.6315 96.6425 68.2952 95.9305 68.7582C95.6834 68.9328 95.4848 69.1682 95.3536 69.4418C95.2223 69.7154 95.1628 70.0182 95.1806 70.3215C95.1985 70.6248 95.2931 70.9185 95.4555 71.1746C95.6179 71.4308 95.8427 71.6409 96.1085 71.7851C96.8336 72.1913 97.602 71.7152 98.1794 71.274L98.5745 71.7108C98.3757 71.9615 98.1279 72.1686 97.8463 72.3191C97.5648 72.4697 97.2556 72.5605 96.9378 72.5861C96.62 72.6116 96.3004 72.5713 95.9987 72.4677C95.697 72.364 95.4196 72.1992 95.1837 71.9834C94.9478 71.7677 94.7584 71.5055 94.6272 71.2132C94.496 70.9209 94.4258 70.6046 94.421 70.2839C94.4161 69.9632 94.4766 69.6448 94.5989 69.3486C94.7211 69.0524 94.9025 68.7845 95.1317 68.5616V68.5398Z" fill="white"/>
<path d="M100.19 68.2253C100.418 68.0744 100.675 67.9711 100.944 67.9215C101.213 67.8718 101.489 67.8769 101.756 67.9363C102.023 67.9958 102.275 68.1084 102.499 68.2675C102.722 68.4267 102.911 68.6291 103.055 68.863C103.317 69.3723 103.424 69.9481 103.363 70.5184C102.191 70.5184 101.014 70.5184 99.8379 70.5184C100.042 71.0425 100.272 71.6322 100.863 71.8287C101.566 72.1563 102.308 71.7327 102.847 71.2871L103.281 71.7676C102.906 72.1393 102.43 72.3908 101.913 72.4903C101.396 72.5899 100.861 72.5329 100.376 72.3267C98.8697 71.5885 98.7699 69.1163 100.19 68.2253ZM99.8509 69.9724C100.81 69.9724 101.774 69.9724 102.738 69.9724C102.573 69.195 101.965 68.3345 101.075 68.5179C100.363 68.6359 100.012 69.3304 99.8553 69.9724H99.8509Z" fill="white"/>
<path d="M105.178 68.649C105.916 67.5308 107.861 67.6575 108.291 68.9809C108.376 70.1436 108.394 71.3104 108.343 72.4752H107.705C107.635 71.4313 107.809 70.3612 107.596 69.3304C107.405 68.5878 106.48 68.435 105.86 68.7014C105.654 68.8202 105.484 68.9923 105.367 69.1997C105.25 69.4071 105.191 69.6423 105.195 69.8807C105.161 70.7543 105.195 71.6016 105.195 72.4621H104.527C104.527 70.9683 104.527 69.4701 104.527 67.9807L105.208 68.0156L105.178 68.649Z" fill="white"/>
<path d="M113.844 68.1772C114.076 68.0376 114.333 67.9458 114.601 67.9072C114.869 67.8685 115.141 67.8837 115.403 67.952C115.665 68.0203 115.91 68.1402 116.126 68.3049C116.341 68.4695 116.522 68.6756 116.657 68.911C116.894 69.4128 117.011 69.9631 117 70.5184C115.81 70.5184 114.621 70.5184 113.431 70.5184C113.618 71.1605 114.048 71.8287 114.768 71.9336C115.407 72.0515 115.958 71.654 116.449 71.3002L116.835 71.7763C116.46 72.1599 115.975 72.4162 115.448 72.5093C114.921 72.6025 114.379 72.528 113.896 72.2961C112.407 71.5012 112.376 69.0115 113.844 68.1772ZM113.436 69.9724C114.391 69.9724 115.35 69.9724 116.305 69.9724C116.153 69.3478 115.841 68.6621 115.142 68.5223C114.252 68.2908 113.579 69.1862 113.436 69.9724Z" fill="white"/>
<path d="M35.5181 24.6738C35.4897 23.8141 35.5144 22.9534 35.5919 22.0968C35.7525 25.3377 35.6223 28.5917 35.6614 31.8414C35.6266 33.5099 35.7439 35.1828 35.5876 36.8513C35.5086 35.9567 35.4854 35.0581 35.5181 34.1607C35.5181 30.9984 35.5181 27.8361 35.5181 24.6738Z" fill="white"/>
<path d="M38.5745 22.0968C38.6673 22.6273 38.7095 23.1655 38.7004 23.7041C38.67 27.0717 38.7004 30.4393 38.6787 33.8025C41.1056 33.8025 43.5369 33.7676 45.9638 33.8375C46.0029 34.829 45.9899 35.8205 45.9899 36.812H45.8336C45.8336 35.8467 45.8336 34.8858 45.8336 33.9205C43.4066 33.9205 40.9797 33.9205 38.5528 33.9205C38.5398 29.9807 38.466 26.0366 38.5745 22.0968Z" fill="white"/>
<path d="M47.9913 25.4862C49.1114 25.4513 50.2272 25.4862 51.3473 25.4862C51.3821 29.3037 51.4081 33.1211 51.3473 36.9386C50.2446 36.9386 49.1462 36.9386 48.0478 36.9386C47.9305 35.7506 48.0174 34.5538 47.9957 33.3657C47.987 30.7538 47.9609 28.12 47.9913 25.4862ZM48.1259 25.6216C48.1259 29.3474 48.1259 33.0775 48.1259 36.8032C49.1592 36.8032 50.1925 36.8032 51.2258 36.8032C51.1997 33.0731 51.2258 29.3386 51.2258 25.6085C50.1751 25.6172 49.1505 25.6085 48.1259 25.6216Z" fill="white"/>
<path d="M19.1027 0.545974C19.1027 0.0349398 19.7062 -0.135405 20.0622 0.117928C20.4182 0.371262 20.2272 0.786204 20.2185 1.11816C19.8929 2.96574 19.5369 4.80459 19.1896 6.65218L18.2344 6.36391C18.6293 4.44202 18.9192 2.49979 19.1027 0.545974Z" fill="#FFAB00"/>
<path d="M28.7844 2.81287C28.9698 2.73703 29.1719 2.71176 29.3701 2.73963C29.5684 2.7675 29.7558 2.84751 29.9135 2.97158C30.0712 3.09566 30.1935 3.2594 30.2682 3.44627C30.3428 3.63314 30.3671 3.83652 30.3386 4.03586C30.2344 5.02735 28.754 5.27195 28.2634 4.44644C27.864 3.88299 28.22 3.10988 28.7844 2.81287Z" fill="#FFAB00"/>
<path d="M25.0984 8.45172C25.5326 7.85333 25.8191 7.14138 26.3748 6.65218C26.5516 6.58885 26.744 6.58484 26.9232 6.64075C27.1025 6.69665 27.2589 6.80947 27.369 6.96229C27.5688 7.75724 26.8133 8.27264 26.4139 8.84919L25.0984 8.45172Z" fill="#FFAB00"/>
<path d="M17.7178 9.2816C18.0304 9.33838 18.3473 9.4039 18.6556 9.48252C18.3169 11.4218 17.9435 13.3524 17.6093 15.2917C18.9117 15.5101 20.2142 15.6848 21.5427 15.8377C21.65 15.858 21.7493 15.9088 21.8289 15.984C21.9085 16.0592 21.9651 16.1557 21.992 16.2622C22.0189 16.3686 22.015 16.4806 21.9808 16.585C21.9466 16.6893 21.8834 16.7816 21.7988 16.851C21.2027 16.8595 20.6082 16.786 20.0318 16.6326C18.9119 16.4165 17.7816 16.2591 16.6454 16.1609C16.5474 15.8808 16.522 15.5801 16.5716 15.2873C16.9884 13.2825 17.4052 11.2908 17.7178 9.2816Z" fill="#FFAB00"/>
<path d="M23.4443 10.9545V10.9195C23.8147 11.0506 24.1881 11.1743 24.5644 11.2908C23.7655 12.3347 23.1577 13.514 22.3936 14.571C22.28 14.6807 22.1326 14.7479 21.9757 14.7616C21.8189 14.7754 21.6621 14.7348 21.5314 14.6466C21.4006 14.5584 21.3038 14.4279 21.2569 14.2767C21.21 14.1255 21.2158 13.9628 21.2735 13.8154C21.9334 12.8326 22.7279 11.9241 23.4443 10.9545Z" fill="#FFAB00"/>
<path d="M23.2706 15.8115L23.7048 15.5713C24.9725 15.9687 26.2836 16.5628 27.0304 17.7246C27.8726 18.9956 27.6773 20.6641 27.1693 22.0313C26.2836 24.2807 24.7467 26.3685 22.6064 27.5172C21.9242 27.9023 21.1667 28.1328 20.3867 28.1924C19.6068 28.252 18.8233 28.1393 18.0912 27.8623C17.8524 27.7749 17.5007 27.5609 17.7178 27.2639C19.5977 23.4683 21.56 19.6945 23.2706 15.8115ZM24.0391 16.5977C22.4544 19.4411 21.0608 22.3894 19.6237 25.3333C19.286 25.9872 18.9845 26.6594 18.7207 27.3469C19.6286 27.5493 20.5752 27.4841 21.4472 27.1591C23.5485 26.2855 25.0941 24.4423 26.0231 22.4025C26.5615 21.2057 26.9739 19.7818 26.4182 18.5152C26.1997 18.0297 25.8703 17.603 25.4569 17.2698C25.0434 16.9366 24.5577 16.7063 24.0391 16.5977Z" fill="#FFAB00"/>
<path d="M15.508 19.3363C15.4776 18.7117 16.1375 18.489 16.6454 18.4628C17.0535 18.7336 17.4269 19.1791 17.1881 19.6945C16.958 20.6379 15.2692 20.3453 15.508 19.3363Z" fill="#FFAB00"/>
<path d="M15.6295 22.2759C15.7542 22.1889 15.9079 22.1548 16.0574 22.181C16.2069 22.2071 16.3402 22.2914 16.4283 22.4156C16.5118 22.7378 16.5118 23.0762 16.4283 23.3984C16.0745 25.3214 15.854 27.2669 15.7684 29.2207C15.7768 29.3303 15.7538 29.4401 15.7021 29.537C15.6505 29.634 15.5723 29.714 15.477 29.7677C15.3816 29.8214 15.2729 29.8466 15.1638 29.8402C15.0547 29.8338 14.9496 29.7962 14.8611 29.7317C14.5875 29.5876 14.6874 29.2207 14.7004 28.9717C15.036 27.0055 15.2492 25.0201 15.3386 23.0271C15.3603 22.7563 15.3473 22.4025 15.6295 22.2759Z" fill="#FFAB00"/>
<path d="M17.2793 30.9285C19.1722 30.7363 21.0608 30.4481 22.9233 30.1248C23.9913 30.2821 24.0478 31.5051 23.8567 32.348H23.3054C22.8143 33.3881 22.2664 34.4001 21.6643 35.3793C21.152 35.1391 20.631 34.9076 20.1274 34.6543C20.7135 33.7457 21.3039 32.8329 21.864 31.9156C21.9074 31.5575 21.7467 31.3871 21.3907 31.3915C20.822 32.4005 20.3097 33.4487 19.6975 34.449C19.2634 34.3005 18.7467 33.8812 18.3951 34.449C18.657 34.7245 18.9797 34.934 19.3372 35.0605C18.7337 36.0432 18.1563 37.0391 17.5441 38.0175L16.6758 37.6244C16.385 38.1179 16.7323 38.4717 17.2142 38.5722C16.7279 39.3802 16.2113 40.1708 15.7077 40.9701C15.4472 41.2278 15.5774 41.5598 15.7598 41.8131C16.6802 41.0138 17.0405 39.7602 17.7178 38.7556C18.1997 38.9959 18.89 39.0308 19.2113 39.4851C18.6556 40.4241 18.0695 41.3414 17.4747 42.2543C17.6093 42.4726 17.8698 42.691 18.1129 42.4639C18.7077 41.5903 19.1852 40.6076 19.7149 39.6772C20.097 39.769 20.479 40.1664 20.8698 39.9306C21.0738 39.3628 20.4356 39.2972 20.0709 39.1007C20.6614 38.083 21.2258 37.0478 21.8857 36.0738L22.5803 36.5412C21.2084 40.874 19.9363 45.2418 18.5904 49.5834C18.5904 48.806 18.5905 47.9062 18.0043 47.3253C17.7854 47.0659 17.4863 46.8879 17.155 46.8198C16.8236 46.7517 16.479 46.7974 16.1766 46.9497C15.4602 47.2947 15.0912 48.046 14.7612 48.7274C14.7395 47.1986 14.5311 45.6699 14.4834 44.1499C14.2967 42.4508 14.3488 40.7343 14.1404 39.0395L13.6324 38.7818C13.4978 38.9959 13.22 39.2186 13.3155 39.4938C13.8321 43.2108 13.9971 46.9671 14.2315 50.7103C14.301 51.6756 14.2316 52.6628 14.5007 53.6018C15.9812 53.7241 17.2012 52.6497 17.974 51.5053C17.5007 53.1913 17.0101 54.8772 16.437 56.5326C16.1505 56.0959 15.7294 55.6591 15.165 55.8687C14.3661 56.3798 15.4168 57.4368 16.1028 57.3145C15.3907 58.7384 14.2533 59.8478 13.2113 61.0228C12.7811 60.5407 12.4466 59.9803 12.2258 59.3717C11.7178 57.7294 11.2229 56.0828 10.7106 54.4448C10.3459 53.3223 9.59479 52.1736 8.37048 51.9028C7.14617 51.632 6.06078 52.3745 5.2576 53.1913C5.69175 51.5621 6.23879 49.9678 6.67294 48.3386C7.10709 48.9807 7.54125 49.649 8.04052 50.2517C8.31838 50.4395 8.59624 50.1469 8.81766 50.0071C8.40955 48.8409 7.14617 48.0329 7.18958 46.7094C7.41968 45.7005 8.66136 45.1851 9.58611 45.5432C10.8886 46.0018 11.9913 47.3646 11.7091 48.8016C11.5224 49.7975 11.2402 50.837 11.5832 51.8372C12.0211 52.9941 12.7195 54.0332 13.6237 54.8729C13.945 55.1874 14.5485 54.7156 14.3054 54.3356C13.6194 53.4621 12.7815 52.6191 12.4472 51.514C12.0564 50.0901 13.1114 48.6575 12.521 47.2554C11.8784 45.4122 9.71635 43.9271 7.78003 44.6959C8.30101 43.0361 8.74385 41.3501 9.31259 39.7078C9.98553 40.1839 10.6541 40.6207 11.288 41.1361C11.644 41.4069 11.9826 41.7956 12.4689 41.7694C12.4689 41.6297 12.521 41.3326 12.5384 41.206C11.6223 40.4329 10.5412 39.8956 9.63821 39.1051C11.492 36.7246 14.9826 37.2749 17.1751 35.4099C17.8931 34.7303 18.3845 33.8439 18.5818 32.8722C18.6339 32.003 17.8871 31.4177 17.2793 30.9285Z" fill="#FFAB00"/>
<path d="M12.33 31.7322C13.1635 31.4745 14.0666 31.4919 14.8915 31.2954C14.5224 31.8588 13.4588 32.3218 13.7496 33.1124L14.1056 33.2303C14.6006 32.7936 14.9088 32.1471 15.4863 31.7802C15.7461 31.5687 16.0687 31.4504 16.4029 31.4441C16.7371 31.4377 17.0638 31.5437 17.3314 31.7453C17.549 31.9305 17.7027 32.1803 17.7706 32.4589C17.8384 32.7374 17.8169 33.0304 17.7091 33.2959C17.5404 33.8319 17.2593 34.3253 16.8848 34.7428C16.5103 35.1602 16.0512 35.492 15.5384 35.7156C13.6715 36.5324 11.5485 36.7071 9.83792 37.8995C10.385 36.1786 10.8538 34.4533 11.3965 32.7586C11.4491 32.5202 11.563 32.2999 11.7268 32.1198C11.8906 31.9397 12.0986 31.806 12.33 31.7322Z" fill="#FFAB00"/>
<path d="M18.1216 38.1223C18.6382 37.1221 19.2764 36.1874 19.8191 35.2002C20.3488 35.388 20.8654 35.6108 21.3864 35.8248C20.8567 36.8775 20.2098 37.8602 19.6194 38.8823C19.1288 38.6377 18.4645 38.5503 18.1216 38.1223Z" fill="#FFAB00"/>
<path d="M15.56 48.308C15.9144 47.8814 16.4211 47.6116 16.971 47.5568C17.8871 47.8407 18.0087 48.9501 17.8871 49.7407C17.8046 50.4968 17.4949 51.2097 16.9992 51.7841C16.5035 52.3585 15.8454 52.7671 15.1129 52.9554C15.0347 51.4354 14.4703 49.6228 15.56 48.308Z" fill="#FFAB00"/>
<path d="M22.1852 35.5977C22.576 34.8115 23.0535 34.0646 23.4877 33.309C23.3227 34.1476 23.0535 34.9556 22.7931 35.7724L22.1852 35.5977Z" fill="#FFAB00"/>
<path d="M35.0796 33.7152C36.1783 33.6645 37.279 33.6863 38.3748 33.7807C37.319 33.8621 36.2597 33.8883 35.2012 33.8593C35.2012 36.9779 35.2706 40.0966 35.1534 43.2108C35.0547 42.2241 35.0242 41.2317 35.0622 40.2407C35.0709 38.0655 35.0449 35.8904 35.0796 33.7152Z" fill="#0D3E67"/>
<path d="M44.5528 33.7108C45.6729 33.6802 46.7931 33.6846 47.9175 33.7108C47.8698 36.7421 48.0087 39.7821 47.848 42.8133C47.848 39.8257 47.848 36.8425 47.848 33.8549C46.7858 33.8549 45.7236 33.8549 44.6614 33.8549C44.6961 35.7331 44.6614 37.6069 44.6874 39.485C44.7341 40.6802 44.6949 41.8772 44.5702 43.0667C44.4834 39.9393 44.5181 36.825 44.5528 33.7108Z" fill="#0D3E67"/>
<path d="M50.0188 33.7807C50.9929 33.6688 51.9743 33.6352 52.9537 33.6802H59.479C60.3948 33.6343 61.3128 33.6679 62.2229 33.7807C60.4124 33.9073 58.5977 33.8113 56.7873 33.8418C54.5427 33.8113 52.2764 33.9205 50.0188 33.7807Z" fill="#0D3E67"/>
<path d="M64.5499 33.7108C66.3907 33.6365 68.2359 33.7108 70.0767 33.6759C71.0188 33.6759 72.0217 33.6234 72.8813 34.0864C71.4617 33.7457 69.9942 33.8506 68.5398 33.8418C67.2373 33.8418 65.9653 33.8418 64.6802 33.8418C64.6802 38.7032 64.6802 43.569 64.6802 48.4303C65.7178 48.4303 66.7598 48.4303 67.8017 48.4303C67.8017 46.9759 67.7236 45.517 67.8712 44.0625C67.9781 45.5567 68.0013 47.0558 67.9407 48.5526C66.8075 48.5963 65.6701 48.6007 64.5369 48.5526C64.5195 43.5952 64.5065 38.6508 64.5499 33.7108Z" fill="#0D3E67"/>
<path d="M89.0752 45.5126C89.1556 46.5297 89.1715 47.551 89.123 48.5701C86.11 48.5963 83.1013 48.5701 80.0883 48.5701C79.5848 48.5731 79.0816 48.5439 78.5818 48.4828C82.055 48.2993 85.5282 48.4828 89.0014 48.3998C88.9689 47.4368 88.9936 46.4727 89.0752 45.5126Z" fill="#0D3E67"/>
<path d="M76.0984 56.4671C76.1288 54.9908 76.0593 53.5101 76.1331 52.0381L76.7366 51.9857C76.7366 53.4795 76.7366 54.9733 76.7366 56.4671H76.0984Z" fill="#0D3E67"/>
<path d="M59.2142 58.3409H60.0261L60.0043 59.1097H59.2272C59.2185 58.8651 59.2185 58.603 59.2142 58.3409Z" fill="#0D3E67"/>
<path d="M76.8972 58.3453H77.6787C77.6787 58.5986 77.6787 58.852 77.6787 59.1053H76.9233C76.9103 58.8651 76.9016 58.6073 76.8972 58.3453Z" fill="#0D3E67"/>
<path d="M67.068 66.2947H67.8842C67.8842 66.5524 67.8842 66.8145 67.8842 67.0766H67.1027C67.081 66.8276 67.0767 66.5524 67.068 66.2947Z" fill="#0D3E67"/>
<path d="M82.6671 66.3515C83.6831 66.3995 84.7294 66.2117 85.7062 66.5306C84.712 66.4825 83.7178 66.5087 82.7236 66.5C82.7236 68.448 82.7236 70.4005 82.7236 72.3485C83.7438 72.3485 84.7641 72.3747 85.7627 72.3223H85.9103C84.8466 72.6586 83.7395 72.4708 82.6324 72.5101C82.6541 70.4572 82.6281 68.4044 82.6671 66.3515Z" fill="#0D3E67"/>
</g>
<defs>
<clipPath id="clip0_103_320">
<rect width="117" height="76" fill="white"/>
</clipPath>
</defs>
</svg>
